<?xml version="1.0" encoding="UTF-8"?>
<svg xmlns="http://www.w3.org/2000/svg" viewBox="0 0 180 90">
    <g transform="translate(0 1.5)">
        <g id="outlines">
            <g>
                <polygon points="148.64 56.04 135.64 56.04 142.14 33.46 142.14 33.46 148.64 56.04" fill="#fff" stroke="#000" stroke-miterlimit="10" stroke-width=".5"/>
                <rect x="136.76" y="56.04" width="10.75" height="31.43" fill="#fff" stroke="#000" stroke-miterlimit="10" stroke-width=".5"/>
                <rect x="31.06" y="65.65" width="41.18" height="21.82" fill="#fff" stroke="#000" stroke-miterlimit="10" stroke-width=".5"/>
                <rect x="31.06" y="51.03" width="41.18" height="14.62" fill="#fff" stroke="#000" stroke-miterlimit="10" stroke-width=".5"/>
                <rect x="16.18" y="68.56" width="14.89" height="18.9" fill="#fff" stroke="#000" stroke-miterlimit="10" stroke-width=".5"/>
                <polygon points="31.06 56.21 8.73 56.21 16.18 68.56 31.06 68.56 31.06 56.21" fill="#fff" stroke="#000" stroke-miterlimit="10" stroke-width=".5"/>
                <rect x="1.29" y="68.56" width="14.89" height="18.9" fill="#fff" stroke="#000" stroke-miterlimit="10" stroke-width=".5"/>
                <polygon points="8.73 56.21 8.73 56.21 1.29 68.56 16.18 68.56 8.73 56.21" fill="#fff" stroke="#000" stroke-miterlimit="10" stroke-width=".5"/>
                <rect x="95.58" y="65.65" width="41.18" height="21.82" fill="#fff" stroke="#000" stroke-miterlimit="10" stroke-width=".5"/>
                <rect x="95.58" y="51.03" width="41.18" height="14.62" fill="#fff" stroke="#000" stroke-miterlimit="10" stroke-width=".5"/>
                <rect x="72.24" y="46.84" width="23.34" height="40.62" fill="#fff" stroke="#000" stroke-miterlimit="10" stroke-width=".5"/>
                <rect x="71.34" y="38.69" width="25.15" height="3.96" fill="#fff" stroke="#000" stroke-miterlimit="10" stroke-width=".5"/>
                <rect x="71.87" y="42.65" width="24.08" height="4.19" fill="#fff" stroke="#000" stroke-miterlimit="10" stroke-width=".5"/>
                <rect x="77.01" y="32.31" width="13.81" height="6.38" fill="#fff" stroke="#000" stroke-miterlimit="10" stroke-width=".5"/>
                <path d="M83.91,20.14h0c-3.36,0-6.08,2.72-6.08,6.08v6.08h12.17v-6.08c0-3.36-2.72-6.08-6.08-6.08Z" fill="#fff" stroke="#000" stroke-miterlimit="10" stroke-width=".5"/>
                <rect x="82.68" y="28.69" width="2.47" height="3.62" fill="#fff" stroke="#000" stroke-miterlimit="10" stroke-width=".5"/>
                <rect x="77.83" y="28.69" width="1.64" height="3.62" fill="#fff" stroke="#000" stroke-miterlimit="10" stroke-width=".5"/>
                <rect x="88.35" y="28.69" width="1.64" height="3.62" fill="#fff" stroke="#000" stroke-miterlimit="10" stroke-width=".5"/>
                <g>
                    <rect x="79.48" y="46.84" width="1.64" height="40.62" fill="#fff" stroke="#000" stroke-miterlimit="10" stroke-width=".5"/>
                    <rect x="72.24" y="46.84" width="1.64" height="40.62" fill="#fff" stroke="#000" stroke-miterlimit="10" stroke-width=".5"/>
                    <rect x="86.71" y="46.84" width="1.64" height="40.62" fill="#fff" stroke="#000" stroke-miterlimit="10" stroke-width=".5"/>
                    <rect x="93.94" y="46.84" width="1.64" height="40.62" fill="#fff" stroke="#000" stroke-miterlimit="10" stroke-width=".5"/>
                </g>
                <rect x="8.1" y="54.89" width="1.27" height="2.37" fill="#fff" stroke="#000" stroke-miterlimit="10" stroke-width=".5"/>
                <rect x="163.82" y="74.46" width="14.89" height="13" fill="#fff" stroke="#000" stroke-miterlimit="10" stroke-width=".5"/>
                <polygon points="171.27 62.11 171.27 62.11 163.82 74.46 178.71 74.46 171.27 62.11" fill="#fff" stroke="#000" stroke-miterlimit="10" stroke-width=".5"/>
                <rect x="170.63" y="60.8" width="1.27" height="2.37" fill="#fff" stroke="#000" stroke-miterlimit="10" stroke-width=".5"/>
                <rect x="31.06" y="48.66" width="1.27" height="2.37" fill="#fff" stroke="#000" stroke-miterlimit="10" stroke-width=".5"/>
                <rect x="135.5" y="48.66" width="1.27" height="2.37" fill="#fff" stroke="#000" stroke-miterlimit="10" stroke-width=".5"/>
                <rect x="34.3" y="67.77" width="4.58" height="7.28" fill="#fff" stroke="#000" stroke-miterlimit="10" stroke-width=".5"/>
                <g>
                    <rect x="38" y="59.21" width="1.18" height="1.88" fill="#fff" stroke="#000" stroke-miterlimit="10" stroke-width=".5"/>
                    <rect x="51.36" y="59.21" width="1.18" height="1.88" fill="#fff" stroke="#000" stroke-miterlimit="10" stroke-width=".5"/>
                    <rect x="64.13" y="59.21" width="1.18" height="1.88" fill="#fff" stroke="#000" stroke-miterlimit="10" stroke-width=".5"/>
                </g>
                <g>
                    <rect x="44.38" y="55.59" width="1.18" height="1.88" fill="#fff" stroke="#000" stroke-miterlimit="10" stroke-width=".5"/>
                    <rect x="57.75" y="55.59" width="1.18" height="1.88" fill="#fff" stroke="#000" stroke-miterlimit="10" stroke-width=".5"/>
                </g>
                <g>
                    <rect x="102.52" y="59.21" width="1.18" height="1.88" fill="#fff" stroke="#000" stroke-miterlimit="10" stroke-width=".5"/>
                    <rect x="115.88" y="59.21" width="1.18" height="1.88" fill="#fff" stroke="#000" stroke-miterlimit="10" stroke-width=".5"/>
                    <rect x="128.65" y="59.21" width="1.18" height="1.88" fill="#fff" stroke="#000" stroke-miterlimit="10" stroke-width=".5"/>
                </g>
                <g>
                    <rect x="108.9" y="55.59" width="1.18" height="1.88" fill="#fff" stroke="#000" stroke-miterlimit="10" stroke-width=".5"/>
                    <rect x="122.27" y="55.59" width="1.18" height="1.88" fill="#fff" stroke="#000" stroke-miterlimit="10" stroke-width=".5"/>
                </g>
                <rect x="34.3" y="78.01" width="4.58" height="7.28" fill="#fff" stroke="#000" stroke-miterlimit="10" stroke-width=".5"/>
                <rect x="41.83" y="67.77" width="4.58" height="7.28" fill="#fff" stroke="#000" stroke-miterlimit="10" stroke-width=".5"/>
                <rect x="41.83" y="78.01" width="4.58" height="7.28" fill="#fff" stroke="#000" stroke-miterlimit="10" stroke-width=".5"/>
                <rect x="49.36" y="67.77" width="4.58" height="7.28" fill="#fff" stroke="#000" stroke-miterlimit="10" stroke-width=".5"/>
                <rect x="49.36" y="78.01" width="4.58" height="7.28" fill="#fff" stroke="#000" stroke-miterlimit="10" stroke-width=".5"/>
                <rect x="56.9" y="67.77" width="4.58" height="7.28" fill="#fff" stroke="#000" stroke-miterlimit="10" stroke-width=".5"/>
                <rect x="56.9" y="78.01" width="4.58" height="7.28" fill="#fff" stroke="#000" stroke-miterlimit="10" stroke-width=".5"/>
                <rect x="64.43" y="67.77" width="4.58" height="7.28" fill="#fff" stroke="#000" stroke-miterlimit="10" stroke-width=".5"/>
                <rect x="64.43" y="78.01" width="4.58" height="7.28" fill="#fff" stroke="#000" stroke-miterlimit="10" stroke-width=".5"/>
                <rect x="98.82" y="67.77" width="4.58" height="7.28" fill="#fff" stroke="#000" stroke-miterlimit="10" stroke-width=".5"/>
                <rect x="98.82" y="78.01" width="4.58" height="7.28" fill="#fff" stroke="#000" stroke-miterlimit="10" stroke-width=".5"/>
                <rect x="106.35" y="67.77" width="4.58" height="7.28" fill="#fff" stroke="#000" stroke-miterlimit="10" stroke-width=".5"/>
                <rect x="106.35" y="78.01" width="4.58" height="7.28" fill="#fff" stroke="#000" stroke-miterlimit="10" stroke-width=".5"/>
                <rect x="113.89" y="67.77" width="4.58" height="7.28" fill="#fff" stroke="#000" stroke-miterlimit="10" stroke-width=".5"/>
                <rect x="113.89" y="78.01" width="4.58" height="7.28" fill="#fff" stroke="#000" stroke-miterlimit="10" stroke-width=".5"/>
                <rect x="121.42" y="67.77" width="4.58" height="7.28" fill="#fff" stroke="#000" stroke-miterlimit="10" stroke-width=".5"/>
                <rect x="121.42" y="78.01" width="4.58" height="7.28" fill="#fff" stroke="#000" stroke-miterlimit="10" stroke-width=".5"/>
                <rect x="128.95" y="67.77" width="4.58" height="7.28" fill="#fff" stroke="#000" stroke-miterlimit="10" stroke-width=".5"/>
                <rect x="128.95" y="78.01" width="4.58" height="7.28" fill="#fff" stroke="#000" stroke-miterlimit="10" stroke-width=".5"/>
                <polygon points="136.76 54.81 136.76 74.46 148.19 74.46 148.19 60.05 136.76 54.81" fill="#fff" stroke="#000" stroke-miterlimit="10" stroke-width=".5"/>
                <polygon points="148.19 63.16 148.19 74.46 159.61 74.46 159.61 68.4 148.19 63.16" fill="#fff" stroke="#000" stroke-miterlimit="10" stroke-width=".5"/>
                <rect x="136.76" y="74.46" width="27.06" height="13" fill="#fff" stroke="#000" stroke-miterlimit="10" stroke-width=".5"/>
                <line x1="77.83" y1="26.22" x2="90" y2="26.22" fill="#fff" stroke="#000" stroke-miterlimit="10" stroke-width=".5"/>
            </g>
            <path d="M171.9,63.16h0v-2.37h-1.27v2.37h0l-6.81,11.3h-4.21v-6.07l-11.42-5.23v-3.11l-.67-.31v-3.7h1.13l-6.5-22.58-5.37,18.66v-3.45h-1.27v2.37h-39.91v-4.19h.37v-4.19h.54v-3.96h-5.67v-6.38h-.82v-6.08c0-3.36-2.72-6.08-6.08-6.08s-6.08,2.72-6.08,6.08v6.08h-.82v6.38h-5.67v3.96h.54v4.19h.37v4.19H32.33v-2.37h-1.27v7.55H9.37v-1.32h-1.27v2.37h0l-6.81,11.3v18.9H178.71v-13l-6.81-11.3Z" fill="none" stroke="#000" stroke-linejoin="round" stroke-width="2"/>
        </g>
        <g id="shadows">
            <polygon points="72.24 70.48 31.06 67.15 31.06 65.65 72.24 65.65 72.24 70.48" opacity=".1"/>
            <polygon points="95.58 50.01 72.24 47.83 72.24 46.84 95.58 46.84 95.58 50.01" opacity=".1"/>
            <polygon points="95.95 45.82 71.87 43.64 71.87 42.65 95.95 42.65 95.95 45.82" opacity=".1"/>
            <polygon points="16.18 70.93 1.29 69.3 1.29 68.56 16.18 68.56 16.18 70.93" opacity=".1"/>
            <g opacity=".1">
                <polygon points="31.06 68.56 19.9 68.56 16.18 68.56 16.18 69.3 16.18 87.46 19.9 87.46 19.9 69.71 31.06 70.93 31.06 68.56"/>
            </g>
            <g opacity=".1">
                <polygon points="136.76 65.65 103.4 65.65 95.58 65.65 95.58 67.15 95.58 87.46 103.4 87.46 103.4 67.78 136.76 70.48 136.76 65.65"/>
            </g>
        </g>
    </g>
</svg>