<?xml version="1.0" encoding="UTF-8"?><svg xmlns="http://www.w3.org/2000/svg" viewBox="0 0 180 90"><g id="outlines"><g><g><g><rect x="6.92" y="59.85" width="166.17" height="26.82" fill="#fff" stroke="#000" stroke-linejoin="round" stroke-width=".5"/><g><rect x="20.42" y="59.85" width="2.56" height="26.82" fill="none" stroke="#000" stroke-linejoin="round" stroke-width=".5"/><rect x="36.48" y="59.85" width="2.56" height="26.82" fill="none" stroke="#000" stroke-linejoin="round" stroke-width=".5"/><rect x="52.54" y="59.85" width="2.56" height="26.82" fill="none" stroke="#000" stroke-linejoin="round" stroke-width=".5"/><g><rect x="22.98" y="59.85" width="6.75" height="17.43" fill="none" stroke="#000" stroke-linejoin="round" stroke-width=".5"/><rect x="29.73" y="59.85" width="6.75" height="17.43" fill="none" stroke="#000" stroke-linejoin="round" stroke-width=".5"/></g><g><rect x="39.04" y="59.85" width="6.75" height="17.43" fill="none" stroke="#000" stroke-linejoin="round" stroke-width=".5"/><rect x="45.79" y="59.85" width="6.75" height="17.43" fill="none" stroke="#000" stroke-linejoin="round" stroke-width=".5"/></g><g><rect x="6.92" y="59.85" width="6.75" height="17.43" fill="none" stroke="#000" stroke-linejoin="round" stroke-width=".5"/><rect x="13.67" y="59.85" width="6.75" height="17.43" fill="none" stroke="#000" stroke-linejoin="round" stroke-width=".5"/></g></g><g><rect x="157.02" y="59.85" width="2.56" height="26.82" fill="none" stroke="#000" stroke-linejoin="round" stroke-width=".5"/><rect x="140.96" y="59.85" width="2.56" height="26.82" fill="none" stroke="#000" stroke-linejoin="round" stroke-width=".5"/><rect x="124.9" y="59.85" width="2.56" height="26.82" fill="none" stroke="#000" stroke-linejoin="round" stroke-width=".5"/><g><rect x="150.27" y="59.85" width="6.75" height="17.43" fill="none" stroke="#000" stroke-linejoin="round" stroke-width=".5"/><rect x="143.52" y="59.85" width="6.75" height="17.43" fill="none" stroke="#000" stroke-linejoin="round" stroke-width=".5"/></g><g><rect x="134.21" y="59.85" width="6.75" height="17.43" fill="none" stroke="#000" stroke-linejoin="round" stroke-width=".5"/><rect x="127.46" y="59.85" width="6.75" height="17.43" fill="none" stroke="#000" stroke-linejoin="round" stroke-width=".5"/></g><g><rect x="166.33" y="59.85" width="6.75" height="17.43" fill="none" stroke="#000" stroke-linejoin="round" stroke-width=".5"/><rect x="159.58" y="59.85" width="6.75" height="17.43" fill="none" stroke="#000" stroke-linejoin="round" stroke-width=".5"/></g></g><rect x="55.1" y="83.14" width="69.8" height="3.53" fill="none" stroke="#000" stroke-linejoin="round" stroke-width=".5"/><rect x="55.1" y="77.5" width="69.8" height="2.79" fill="none" stroke="#000" stroke-linejoin="round" stroke-width=".5"/><rect x="55.1" y="80.3" width="69.8" height="2.85" fill="none" stroke="#000" stroke-linejoin="round" stroke-width=".5"/><g><rect x="55.1" y="77.5" width="12.45" height="9.17" fill="none" stroke="#000" stroke-linejoin="round" stroke-width=".5"/><rect x="67.55" y="77.5" width="22.45" height="9.17" fill="none" stroke="#000" stroke-linejoin="round" stroke-width=".5"/><rect x="90" y="77.5" width="22.45" height="9.17" fill="none" stroke="#000" stroke-linejoin="round" stroke-width=".5"/><rect x="112.45" y="77.5" width="12.45" height="9.17" fill="none" stroke="#000" stroke-linejoin="round" stroke-width=".5"/></g></g><polygon points="166.33 59.85 159.58 59.85 157.02 59.85 150.27 59.85 143.52 59.85 140.96 59.85 134.21 59.85 127.46 59.85 124.9 59.85 55.1 59.85 52.54 59.85 45.79 59.85 39.04 59.85 36.48 59.85 29.73 59.85 22.98 59.85 20.42 59.85 13.67 59.85 6.92 59.85 6.92 77.28 6.92 86.67 20.42 86.67 22.98 86.67 36.48 86.67 39.04 86.67 52.54 86.67 55.1 86.67 67.55 86.67 90 86.67 112.45 86.67 124.9 86.67 127.46 86.67 140.96 86.67 143.52 86.67 157.02 86.67 159.58 86.67 173.08 86.67 173.08 77.28 173.08 59.85 166.33 59.85" fill="none" stroke="#000" stroke-linejoin="round" stroke-width="2"/></g><g><g><path d="M51.76,70.37c0,5.45,3.9,10.69,8.72,10.69s8.72-5.24,8.72-10.69-3.9-7.95-8.72-7.95-8.72,2.5-8.72,7.95Z" fill="none" stroke="#000" stroke-linejoin="round" stroke-width=".5"/><path d="M49.38,73.68c2.93,2.24,7.8,2.92,9.6,.55s-.13-6.88-3.06-9.12c-2.93-2.24-5.74-1.35-7.54,1.02-1.81,2.36-1.92,5.31,1,7.55Z" fill="none" stroke="#000" stroke-linejoin="round" stroke-width=".5"/><path d="M63.42,62.49c-1.35,3.43-.71,8.28,2,9.34,2.71,1.06,6.47-2.06,7.82-5.49,1.35-3.43-.23-5.87-2.94-6.93-2.71-1.06-5.52-.35-6.87,3.08Z" fill="none" stroke="#000" stroke-linejoin="round" stroke-width=".5"/><path d="M55.03,61.39c-.62,3.25,.99,7.46,3.85,8s5.89-2.79,6.51-6.03-1.42-5.18-4.28-5.72-5.46,.51-6.08,3.75Z" fill="none" stroke="#000" stroke-linejoin="round" stroke-width=".5"/><polyline points="61.05 86.67 61.05 78.78 61.05 65.17" fill="none" stroke="#000" stroke-linejoin="round" stroke-width=".5"/><path d="M54.36,70.75c2.04,2.7,6.69,3.69,6.69,8.03" fill="none" stroke="#000" stroke-linejoin="round" stroke-width=".5"/><path d="M61.05,80.27c0-7.15,7.01-7.99,9.03-16.17" fill="none" stroke="#000" stroke-linejoin="round" stroke-width=".5"/><path d="M58.93,61.88c-.76,5.62,2.12,8.03,2.12,11.24" fill="none" stroke="#000" stroke-linejoin="round" stroke-width=".5"/><path d="M66.82,62.22c-.94,1.71,2.04,5.17,.56,7.55" fill="none" stroke="#000" stroke-linejoin="round" stroke-width=".5"/></g><g><path d="M110.71,72.88c0,4.66,3.33,9,7.45,9s7.45-4.35,7.45-9-3.33-6.8-7.45-6.8-7.45,2.14-7.45,6.8Z" fill="none" stroke="#000" stroke-linejoin="round" stroke-width=".5"/><path d="M120.67,66.14c-1.15,2.93-.61,7.07,1.71,7.98s5.53-1.76,6.68-4.69-.2-5.01-2.51-5.92c-2.32-.91-4.72-.3-5.87,2.63Z" fill="none" stroke="#000" stroke-linejoin="round" stroke-width=".5"/><path d="M113.51,65.2c-.53,2.77,.84,6.37,3.29,6.83s5.03-2.38,5.56-5.16c.53-2.77-1.21-4.42-3.66-4.89-2.44-.46-4.67,.43-5.19,3.21Z" fill="none" stroke="#000" stroke-linejoin="round" stroke-width=".5"/><polyline points="118.65 86.67 118.65 80.06 118.65 68.43" fill="none" stroke="#000" stroke-linejoin="round" stroke-width=".5"/><path d="M112.93,73.2c1.75,2.31,5.71,3.15,5.71,6.86" fill="none" stroke="#000" stroke-linejoin="round" stroke-width=".5"/><path d="M118.65,81.33c0-6.11,5.99-6.83,7.71-13.81" fill="none" stroke="#000" stroke-linejoin="round" stroke-width=".5"/></g></g></g></g><g id="shadows"><polygon points="124.9 83.14 55.1 78.5 55.1 77.21 124.9 77.21 124.9 83.14" opacity=".1"/><rect x="39.12" y="77.28" width="3.3" height="9.39" opacity=".1"/><rect x="39.12" y="59.85" width="2.18" height="17.43" opacity=".1"/><rect x="127.56" y="77.28" width="3.3" height="9.39" opacity=".1"/><rect x="127.56" y="59.85" width="2.18" height="17.43" opacity=".1"/><rect x="143.6" y="77.28" width="3.3" height="9.39" opacity=".1"/><rect x="143.6" y="59.85" width="2.18" height="17.43" opacity=".1"/><rect x="159.64" y="77.28" width="3.3" height="9.39" opacity=".1"/><rect x="159.64" y="59.85" width="2.18" height="17.43" opacity=".1"/><rect x="22.98" y="77.28" width="3.3" height="9.39" opacity=".1"/><rect x="22.98" y="59.85" width="2.18" height="17.43" opacity=".1"/><rect x="6.92" y="77.28" width="3.3" height="9.39" opacity=".1"/><rect x="6.92" y="59.85" width="2.18" height="17.43" opacity=".1"/></g></svg>