<?xml version="1.0" encoding="UTF-8"?><svg xmlns="http://www.w3.org/2000/svg" viewBox="0 0 180 90"><g id="outlines"><g><g><rect x="52.6" y="30.9" width="74.81" height="51.93" fill="#fff" stroke="#000" stroke-miterlimit="10" stroke-width=".5"/><rect x="72.11" y="23.56" width="35.78" height="7.33" fill="#fff" stroke="#000" stroke-miterlimit="10" stroke-width=".5"/><polygon points="72.11 21.48 56.6 21.9 56.6 30.9 72.11 30.9 72.11 21.48" fill="#fff" stroke="#000" stroke-miterlimit="10" stroke-width=".5"/><polygon points="72.8 22.17 53.73 21.77 53.88 19.35 72.96 19.75 72.8 22.17" fill="#fff" stroke="#000" stroke-miterlimit="10" stroke-width=".5"/><polygon points="107.88 21.48 123.39 21.9 123.39 30.9 107.88 30.9 107.88 21.48" fill="#fff" stroke="#000" stroke-miterlimit="10" stroke-width=".5"/><polygon points="107.19 22.17 126.27 21.77 126.11 19.35 107.03 19.75 107.19 22.17" fill="#fff" stroke="#000" stroke-miterlimit="10" stroke-width=".5"/><rect x="75.83" y="20.63" width="13.07" height="2.93" fill="#fff" stroke="#000" stroke-miterlimit="10" stroke-width=".5"/><rect x="74.98" y="18.66" width="14.78" height="1.97" fill="#fff" stroke="#000" stroke-miterlimit="10" stroke-width=".5"/><rect x="76.51" y="14.55" width="2.02" height="4.11" fill="#fff" stroke="#000" stroke-miterlimit="10" stroke-width=".5"/><line x1="76.63" y1="8.05" x2="76.63" y2="18.66" fill="#fff" stroke="#000" stroke-miterlimit="10" stroke-width=".5"/><rect x="82.06" y="16.13" width="5.88" height="2.53" fill="#fff" stroke="#000" stroke-miterlimit="10" stroke-width=".5"/><line x1="75.69" y1="10.72" x2="77.72" y2="10.72" fill="#fff" stroke="#000" stroke-miterlimit="10" stroke-width=".5"/><line x1="75.69" y1="11.56" x2="77.72" y2="11.56" fill="#fff" stroke="#000" stroke-miterlimit="10" stroke-width=".5"/><rect x="60.22" y="25.79" width="8.27" height="5.1" fill="#fff" stroke="#000" stroke-miterlimit="10" stroke-width=".5"/><rect x="111.5" y="25.79" width="8.27" height="5.1" fill="#fff" stroke="#000" stroke-miterlimit="10" stroke-width=".5"/><rect x="52.95" y="82.82" width="74.11" height="5.05" fill="#fff" stroke="#000" stroke-miterlimit="10" stroke-width=".5"/><polygon points="94.89 85.68 67.65 85.68 61.01 87.87 101.54 87.87 94.89 85.68" fill="#fff" stroke="#000" stroke-miterlimit="10" stroke-width=".5"/><rect x="74.98" y="75.97" width="12.59" height="9.71" fill="#fff" stroke="#000" stroke-miterlimit="10" stroke-width=".5"/><rect x="73.97" y="74.84" width="14.6" height="1.14" fill="#fff" stroke="#000" stroke-miterlimit="10" stroke-width=".5"/><g><rect x="56.6" y="61.49" width="4.6" height="11.47" fill="#fff" stroke="#000" stroke-miterlimit="10" stroke-width=".5"/><rect x="65.58" y="61.49" width="4.6" height="11.47" fill="#fff" stroke="#000" stroke-miterlimit="10" stroke-width=".5"/><rect x="74.55" y="61.49" width="4.6" height="11.47" fill="#fff" stroke="#000" stroke-miterlimit="10" stroke-width=".5"/><rect x="83.52" y="61.49" width="4.6" height="11.47" fill="#fff" stroke="#000" stroke-miterlimit="10" stroke-width=".5"/><rect x="92.5" y="61.49" width="4.6" height="11.47" fill="#fff" stroke="#000" stroke-miterlimit="10" stroke-width=".5"/><rect x="101.47" y="61.49" width="4.6" height="11.47" fill="#fff" stroke="#000" stroke-miterlimit="10" stroke-width=".5"/><rect x="110.44" y="61.49" width="4.6" height="11.47" fill="#fff" stroke="#000" stroke-miterlimit="10" stroke-width=".5"/><rect x="119.42" y="61.49" width="4.6" height="11.47" fill="#fff" stroke="#000" stroke-miterlimit="10" stroke-width=".5"/></g><g><rect x="56.6" y="54.55" width="4.6" height="3.69" fill="#fff" stroke="#000" stroke-miterlimit="10" stroke-width=".5"/><rect x="65.58" y="54.55" width="4.6" height="3.69" fill="#fff" stroke="#000" stroke-miterlimit="10" stroke-width=".5"/><rect x="74.55" y="54.55" width="4.6" height="3.69" fill="#fff" stroke="#000" stroke-miterlimit="10" stroke-width=".5"/><rect x="83.52" y="54.55" width="4.6" height="3.69" fill="#fff" stroke="#000" stroke-miterlimit="10" stroke-width=".5"/><rect x="92.5" y="54.55" width="4.6" height="3.69" fill="#fff" stroke="#000" stroke-miterlimit="10" stroke-width=".5"/><rect x="101.47" y="54.55" width="4.6" height="3.69" fill="#fff" stroke="#000" stroke-miterlimit="10" stroke-width=".5"/><rect x="110.44" y="54.55" width="4.6" height="3.69" fill="#fff" stroke="#000" stroke-miterlimit="10" stroke-width=".5"/><rect x="119.42" y="54.55" width="4.6" height="3.69" fill="#fff" stroke="#000" stroke-miterlimit="10" stroke-width=".5"/></g><g><rect x="56.6" y="65.57" width="4.6" height="3.69" fill="#fff" stroke="#000" stroke-miterlimit="10" stroke-width=".5"/><rect x="65.58" y="65.57" width="4.6" height="3.69" fill="#fff" stroke="#000" stroke-miterlimit="10" stroke-width=".5"/><rect x="74.55" y="65.57" width="4.6" height="3.69" fill="#fff" stroke="#000" stroke-miterlimit="10" stroke-width=".5"/><rect x="83.52" y="65.57" width="4.6" height="3.69" fill="#fff" stroke="#000" stroke-miterlimit="10" stroke-width=".5"/><rect x="92.5" y="65.57" width="4.6" height="3.69" fill="#fff" stroke="#000" stroke-miterlimit="10" stroke-width=".5"/><rect x="101.47" y="65.57" width="4.6" height="3.69" fill="#fff" stroke="#000" stroke-miterlimit="10" stroke-width=".5"/><rect x="110.44" y="65.57" width="4.6" height="3.69" fill="#fff" stroke="#000" stroke-miterlimit="10" stroke-width=".5"/><rect x="119.42" y="65.57" width="4.6" height="3.69" fill="#fff" stroke="#000" stroke-miterlimit="10" stroke-width=".5"/></g><g><rect x="56.6" y="76.21" width="4.6" height="3.69" fill="#fff" stroke="#000" stroke-miterlimit="10" stroke-width=".5"/><rect x="65.58" y="76.21" width="4.6" height="3.69" fill="#fff" stroke="#000" stroke-miterlimit="10" stroke-width=".5"/><rect x="92.5" y="76.21" width="4.6" height="3.69" fill="#fff" stroke="#000" stroke-miterlimit="10" stroke-width=".5"/><rect x="101.47" y="76.21" width="4.6" height="3.69" fill="#fff" stroke="#000" stroke-miterlimit="10" stroke-width=".5"/><rect x="110.44" y="76.21" width="4.6" height="3.69" fill="#fff" stroke="#000" stroke-miterlimit="10" stroke-width=".5"/><rect x="119.42" y="76.21" width="4.6" height="3.69" fill="#fff" stroke="#000" stroke-miterlimit="10" stroke-width=".5"/></g><g><rect x="56.6" y="47.6" width="4.6" height="3.69" fill="#fff" stroke="#000" stroke-miterlimit="10" stroke-width=".5"/><rect x="65.58" y="47.6" width="4.6" height="3.69" fill="#fff" stroke="#000" stroke-miterlimit="10" stroke-width=".5"/><rect x="74.55" y="47.6" width="4.6" height="3.69" fill="#fff" stroke="#000" stroke-miterlimit="10" stroke-width=".5"/><rect x="83.52" y="47.6" width="4.6" height="3.69" fill="#fff" stroke="#000" stroke-miterlimit="10" stroke-width=".5"/><rect x="92.5" y="47.6" width="4.6" height="3.69" fill="#fff" stroke="#000" stroke-miterlimit="10" stroke-width=".5"/><rect x="101.47" y="47.6" width="4.6" height="3.69" fill="#fff" stroke="#000" stroke-miterlimit="10" stroke-width=".5"/><rect x="110.44" y="47.6" width="4.6" height="3.69" fill="#fff" stroke="#000" stroke-miterlimit="10" stroke-width=".5"/><rect x="119.42" y="47.6" width="4.6" height="3.69" fill="#fff" stroke="#000" stroke-miterlimit="10" stroke-width=".5"/></g><g><rect x="56.6" y="40.66" width="4.6" height="3.69" fill="#fff" stroke="#000" stroke-miterlimit="10" stroke-width=".5"/><rect x="65.58" y="40.66" width="4.6" height="3.69" fill="#fff" stroke="#000" stroke-miterlimit="10" stroke-width=".5"/><rect x="74.55" y="40.66" width="4.6" height="3.69" fill="#fff" stroke="#000" stroke-miterlimit="10" stroke-width=".5"/><rect x="83.52" y="40.66" width="4.6" height="3.69" fill="#fff" stroke="#000" stroke-miterlimit="10" stroke-width=".5"/><rect x="92.5" y="40.66" width="4.6" height="3.69" fill="#fff" stroke="#000" stroke-miterlimit="10" stroke-width=".5"/><rect x="101.47" y="40.66" width="4.6" height="3.69" fill="#fff" stroke="#000" stroke-miterlimit="10" stroke-width=".5"/><rect x="110.44" y="40.66" width="4.6" height="3.69" fill="#fff" stroke="#000" stroke-miterlimit="10" stroke-width=".5"/><rect x="119.42" y="40.66" width="4.6" height="3.69" fill="#fff" stroke="#000" stroke-miterlimit="10" stroke-width=".5"/></g><g><rect x="56.6" y="33.72" width="4.6" height="3.69" fill="#fff" stroke="#000" stroke-miterlimit="10" stroke-width=".5"/><rect x="65.58" y="33.72" width="4.6" height="3.69" fill="#fff" stroke="#000" stroke-miterlimit="10" stroke-width=".5"/><rect x="74.55" y="33.72" width="4.6" height="3.69" fill="#fff" stroke="#000" stroke-miterlimit="10" stroke-width=".5"/><rect x="83.52" y="33.72" width="4.6" height="3.69" fill="#fff" stroke="#000" stroke-miterlimit="10" stroke-width=".5"/><rect x="92.5" y="33.72" width="4.6" height="3.69" fill="#fff" stroke="#000" stroke-miterlimit="10" stroke-width=".5"/><rect x="101.47" y="33.72" width="4.6" height="3.69" fill="#fff" stroke="#000" stroke-miterlimit="10" stroke-width=".5"/><rect x="110.44" y="33.72" width="4.6" height="3.69" fill="#fff" stroke="#000" stroke-miterlimit="10" stroke-width=".5"/><rect x="119.42" y="33.72" width="4.6" height="3.69" fill="#fff" stroke="#000" stroke-miterlimit="10" stroke-width=".5"/></g><rect x="74.55" y="26.84" width="31.52" height="4.06" fill="#fff" stroke="#000" stroke-miterlimit="10" stroke-width=".5"/><rect x="78.02" y="79.05" width="3.25" height="6.63" fill="#fff" stroke="#000" stroke-miterlimit="10" stroke-width=".5"/><rect x="81.27" y="79.05" width="3.25" height="6.63" fill="#fff" stroke="#000" stroke-miterlimit="10" stroke-width=".5"/><rect x="78.02" y="75.97" width="6.51" height="3.08" fill="#fff" stroke="#000" stroke-miterlimit="10" stroke-width=".5"/></g><polygon points="123.39 30.9 123.39 21.9 121.94 21.86 126.27 21.77 126.11 19.35 107.03 19.75 107.19 22.17 107.88 22.16 107.88 23.56 88.91 23.56 88.91 20.63 89.76 20.63 89.76 18.66 87.94 18.66 87.94 16.13 82.06 16.13 82.06 18.66 78.53 18.66 78.53 14.55 76.51 14.55 76.51 18.66 74.98 18.66 74.98 20.63 75.83 20.63 75.83 23.56 72.11 23.56 72.11 22.16 72.8 22.17 72.96 19.75 53.88 19.35 53.73 21.77 58.05 21.86 56.6 21.9 56.6 30.9 52.6 30.9 52.6 82.82 52.95 82.82 52.95 87.87 61.01 87.87 101.54 87.87 127.05 87.87 127.05 82.82 127.4 82.82 127.4 30.9 123.39 30.9" fill="none" stroke="#000" stroke-linejoin="round" stroke-width="2"/></g></g><g id="shadows"><rect x="72.11" y="23.56" width="3.34" height="7.23" opacity=".1"/><polygon points="56.6 21.9 56.6 23.56 72.11 24.97 72.11 22.1 56.6 21.9" opacity=".1"/><polygon points="123.39 21.9 123.39 23.56 107.88 24.97 107.88 22.1 123.39 21.9" opacity=".1"/><rect x="75.45" y="23.56" width="32.43" height="1.85" opacity=".1"/><polygon points="87.57 78.57 73.97 76.73 73.97 75.81 87.57 75.81 87.57 78.57" opacity=".1"/><polygon points="91.21 85.68 87.57 85.68 87.57 75.97 88.57 75.97 88.57 74.84 91.21 74.84 91.21 85.68" opacity=".1"/></g></svg>