<?xml version="1.0" encoding="UTF-8"?>
<svg xmlns="http://www.w3.org/2000/svg" viewBox="0 0 180 90">
    <g transform="translate(0 0.9)">
        <g id="outlines">
            <g>
                <rect x="21.1" y="11.57" width="24.53" height="3.47" fill="#fff" stroke="#000" stroke-miterlimit="10" stroke-width=".5"/>
                <rect x="19.27" y="10.79" width="28.2" height=".78" fill="#fff" stroke="#000" stroke-miterlimit="10" stroke-width=".5"/>
                <rect x="14.49" y="15.04" width="37.75" height="73" fill="#fff" stroke="#000" stroke-miterlimit="10" stroke-width=".5"/>
                <g>
                    <rect x="37.15" y="15.04" width="3.78" height="73" fill="#fff" stroke="#000" stroke-miterlimit="10" stroke-width=".5"/>
                    <rect x="40.92" y="15.04" width="3.78" height="73" fill="#fff" stroke="#000" stroke-miterlimit="10" stroke-width=".5"/>
                    <rect x="44.7" y="15.04" width="3.78" height="73" fill="#fff" stroke="#000" stroke-miterlimit="10" stroke-width=".5"/>
                    <rect x="48.47" y="15.04" width="3.78" height="73" fill="#fff" stroke="#000" stroke-miterlimit="10" stroke-width=".5"/>
                    <rect x="33.37" y="15.04" width="3.78" height="73" fill="#fff" stroke="#000" stroke-miterlimit="10" stroke-width=".5"/>
                    <rect x="29.6" y="15.04" width="3.78" height="73" fill="#fff" stroke="#000" stroke-miterlimit="10" stroke-width=".5"/>
                    <rect x="25.82" y="15.04" width="3.78" height="73" fill="#fff" stroke="#000" stroke-miterlimit="10" stroke-width=".5"/>
                    <rect x="22.05" y="15.04" width="3.78" height="73" fill="#fff" stroke="#000" stroke-miterlimit="10" stroke-width=".5"/>
                    <rect x="18.27" y="15.04" width="3.78" height="73" fill="#fff" stroke="#000" stroke-miterlimit="10" stroke-width=".5"/>
                    <rect x="14.49" y="15.04" width="3.78" height="73" fill="#fff" stroke="#000" stroke-miterlimit="10" stroke-width=".5"/>
                </g>
                <rect x="28.95" y="4.95" width="8.85" height="10.1" fill="#fff" stroke="#000" stroke-miterlimit="10" stroke-width=".5"/>
                <rect x="31.69" y="2.17" width="3.36" height="2.78" fill="#fff" stroke="#000" stroke-miterlimit="10" stroke-width=".5"/>
                <g>
                    <rect x="14.49" y="24.16" width="37.75" height="3.78" fill="#fff" stroke="#000" stroke-miterlimit="10" stroke-width=".5"/>
                    <rect x="14.49" y="33.46" width="37.75" height="3.78" fill="#fff" stroke="#000" stroke-miterlimit="10" stroke-width=".5"/>
                    <rect x="14.49" y="15.04" width="37.75" height="3.78" fill="#fff" stroke="#000" stroke-miterlimit="10" stroke-width=".5"/>
                    <rect x="14.49" y="42.75" width="37.75" height="3.78" fill="#fff" stroke="#000" stroke-miterlimit="10" stroke-width=".5"/>
                    <rect x="14.49" y="52.05" width="37.75" height="3.78" fill="#fff" stroke="#000" stroke-miterlimit="10" stroke-width=".5"/>
                    <rect x="14.49" y="61.34" width="37.75" height="3.78" fill="#fff" stroke="#000" stroke-miterlimit="10" stroke-width=".5"/>
                    <rect x="14.49" y="70.64" width="37.75" height="3.78" fill="#fff" stroke="#000" stroke-miterlimit="10" stroke-width=".5"/>
                    <rect x="14.49" y="79.93" width="37.75" height="3.78" fill="#fff" stroke="#000" stroke-miterlimit="10" stroke-width=".5"/>
                </g>
            </g>
            <g>
                <rect x="134.36" y="11.57" width="24.53" height="3.47" fill="#fff" stroke="#000" stroke-miterlimit="10" stroke-width=".5"/>
                <rect x="132.53" y="10.79" width="28.2" height=".78" fill="#fff" stroke="#000" stroke-miterlimit="10" stroke-width=".5"/>
                <rect x="127.75" y="15.04" width="37.75" height="73" fill="#fff" stroke="#000" stroke-miterlimit="10" stroke-width=".5"/>
                <g>
                    <rect x="150.4" y="15.04" width="3.78" height="73" fill="#fff" stroke="#000" stroke-miterlimit="10" stroke-width=".5"/>
                    <rect x="154.18" y="15.04" width="3.78" height="73" fill="#fff" stroke="#000" stroke-miterlimit="10" stroke-width=".5"/>
                    <rect x="157.95" y="15.04" width="3.78" height="73" fill="#fff" stroke="#000" stroke-miterlimit="10" stroke-width=".5"/>
                    <rect x="161.73" y="15.04" width="3.78" height="73" fill="#fff" stroke="#000" stroke-miterlimit="10" stroke-width=".5"/>
                    <rect x="146.63" y="15.04" width="3.78" height="73" fill="#fff" stroke="#000" stroke-miterlimit="10" stroke-width=".5"/>
                    <rect x="142.85" y="15.04" width="3.78" height="73" fill="#fff" stroke="#000" stroke-miterlimit="10" stroke-width=".5"/>
                    <rect x="139.08" y="15.04" width="3.78" height="73" fill="#fff" stroke="#000" stroke-miterlimit="10" stroke-width=".5"/>
                    <rect x="135.3" y="15.04" width="3.78" height="73" fill="#fff" stroke="#000" stroke-miterlimit="10" stroke-width=".5"/>
                    <rect x="131.53" y="15.04" width="3.78" height="73" fill="#fff" stroke="#000" stroke-miterlimit="10" stroke-width=".5"/>
                    <rect x="127.75" y="15.04" width="3.78" height="73" fill="#fff" stroke="#000" stroke-miterlimit="10" stroke-width=".5"/>
                </g>
                <rect x="142.2" y="4.95" width="8.85" height="10.1" fill="#fff" stroke="#000" stroke-miterlimit="10" stroke-width=".5"/>
                <rect x="144.95" y="2.17" width="3.36" height="2.78" fill="#fff" stroke="#000" stroke-miterlimit="10" stroke-width=".5"/>
                <g>
                    <rect x="127.75" y="24.16" width="37.75" height="3.78" fill="#fff" stroke="#000" stroke-miterlimit="10" stroke-width=".5"/>
                    <rect x="127.75" y="33.46" width="37.75" height="3.78" fill="#fff" stroke="#000" stroke-miterlimit="10" stroke-width=".5"/>
                    <rect x="127.75" y="15.04" width="37.75" height="3.78" fill="#fff" stroke="#000" stroke-miterlimit="10" stroke-width=".5"/>
                    <rect x="127.75" y="42.75" width="37.75" height="3.78" fill="#fff" stroke="#000" stroke-miterlimit="10" stroke-width=".5"/>
                    <rect x="127.75" y="52.05" width="37.75" height="3.78" fill="#fff" stroke="#000" stroke-miterlimit="10" stroke-width=".5"/>
                    <rect x="127.75" y="61.34" width="37.75" height="3.78" fill="#fff" stroke="#000" stroke-miterlimit="10" stroke-width=".5"/>
                    <rect x="127.75" y="70.64" width="37.75" height="3.78" fill="#fff" stroke="#000" stroke-miterlimit="10" stroke-width=".5"/>
                    <rect x="127.75" y="79.93" width="37.75" height="3.78" fill="#fff" stroke="#000" stroke-miterlimit="10" stroke-width=".5"/>
                </g>
            </g>
            <g>
                <rect x="52.25" y="70.64" width="37.75" height="17.4" fill="#fff" stroke="#000" stroke-miterlimit="10" stroke-width=".5"/>
                <g>
                    <rect x="74.9" y="74.42" width="3.78" height="13.62" fill="#fff" stroke="#000" stroke-miterlimit="10" stroke-width=".5"/>
                    <rect x="78.67" y="74.42" width="3.78" height="13.62" fill="#fff" stroke="#000" stroke-miterlimit="10" stroke-width=".5"/>
                    <rect x="82.45" y="74.42" width="3.78" height="13.62" fill="#fff" stroke="#000" stroke-miterlimit="10" stroke-width=".5"/>
                    <rect x="86.22" y="74.42" width="3.78" height="13.62" fill="#fff" stroke="#000" stroke-miterlimit="10" stroke-width=".5"/>
                    <rect x="71.12" y="74.42" width="3.78" height="13.62" fill="#fff" stroke="#000" stroke-miterlimit="10" stroke-width=".5"/>
                    <rect x="67.35" y="74.42" width="3.78" height="13.62" fill="#fff" stroke="#000" stroke-miterlimit="10" stroke-width=".5"/>
                    <rect x="63.57" y="74.42" width="3.78" height="13.62" fill="#fff" stroke="#000" stroke-miterlimit="10" stroke-width=".5"/>
                    <rect x="59.8" y="74.42" width="3.78" height="13.62" fill="#fff" stroke="#000" stroke-miterlimit="10" stroke-width=".5"/>
                    <rect x="56.02" y="74.42" width="3.78" height="13.62" fill="#fff" stroke="#000" stroke-miterlimit="10" stroke-width=".5"/>
                    <rect x="52.25" y="74.42" width="3.78" height="13.62" fill="#fff" stroke="#000" stroke-miterlimit="10" stroke-width=".5"/>
                </g>
                <g>
                    <rect x="52.25" y="70.64" width="37.75" height="3.78" fill="#fff" stroke="#000" stroke-miterlimit="10" stroke-width=".5"/>
                    <rect x="52.25" y="79.94" width="37.75" height="3.76" fill="#fff" stroke="#000" stroke-miterlimit="10" stroke-width=".5"/>
                </g>
                <rect x="65.98" y="65.66" width="13.46" height="5" fill="#fff" stroke="#000" stroke-miterlimit="10" stroke-width=".5"/>
            </g>
            <g>
                <rect x="90" y="70.64" width="37.75" height="17.4" fill="#fff" stroke="#000" stroke-miterlimit="10" stroke-width=".5"/>
                <g>
                    <rect x="112.65" y="74.42" width="3.78" height="13.62" fill="#fff" stroke="#000" stroke-miterlimit="10" stroke-width=".5"/>
                    <rect x="116.43" y="74.42" width="3.78" height="13.62" fill="#fff" stroke="#000" stroke-miterlimit="10" stroke-width=".5"/>
                    <rect x="120.2" y="74.42" width="3.78" height="13.62" fill="#fff" stroke="#000" stroke-miterlimit="10" stroke-width=".5"/>
                    <rect x="123.98" y="74.42" width="3.78" height="13.62" fill="#fff" stroke="#000" stroke-miterlimit="10" stroke-width=".5"/>
                    <rect x="108.88" y="74.42" width="3.78" height="13.62" fill="#fff" stroke="#000" stroke-miterlimit="10" stroke-width=".5"/>
                    <rect x="105.1" y="74.42" width="3.78" height="13.62" fill="#fff" stroke="#000" stroke-miterlimit="10" stroke-width=".5"/>
                    <rect x="101.33" y="74.42" width="3.78" height="13.62" fill="#fff" stroke="#000" stroke-miterlimit="10" stroke-width=".5"/>
                    <rect x="97.55" y="74.42" width="3.78" height="13.62" fill="#fff" stroke="#000" stroke-miterlimit="10" stroke-width=".5"/>
                    <rect x="93.78" y="74.42" width="3.78" height="13.62" fill="#fff" stroke="#000" stroke-miterlimit="10" stroke-width=".5"/>
                    <rect x="90" y="74.42" width="3.78" height="13.62" fill="#fff" stroke="#000" stroke-miterlimit="10" stroke-width=".5"/>
                </g>
                <g>
                    <rect x="90" y="70.64" width="37.75" height="3.78" fill="#fff" stroke="#000" stroke-miterlimit="10" stroke-width=".5"/>
                    <rect x="90" y="79.94" width="37.75" height="3.76" fill="#fff" stroke="#000" stroke-miterlimit="10" stroke-width=".5"/>
                </g>
                <rect x="103.73" y="65.66" width="13.46" height="5" fill="#fff" stroke="#000" stroke-miterlimit="10" stroke-width=".5"/>
            </g>
            <polygon points="161.73 15.04 158.9 15.04 158.9 11.57 160.73 11.57 160.73 10.79 151.05 10.79 151.05 4.95 148.31 4.95 148.31 2.17 144.95 2.17 144.95 4.95 142.2 4.95 142.2 10.79 132.53 10.79 132.53 11.57 134.36 11.57 134.36 15.04 131.53 15.04 127.75 15.04 127.75 70.64 117.2 70.64 117.2 65.66 103.73 65.66 103.73 70.64 90 70.64 79.44 70.64 79.44 65.66 65.98 65.66 65.98 70.64 52.25 70.64 52.25 65.13 52.25 61.34 52.25 55.83 52.25 52.05 52.25 46.54 52.25 42.75 52.25 37.24 52.25 33.46 52.25 27.95 52.25 24.16 52.25 18.83 52.25 15.04 52.25 15.04 48.47 15.04 45.64 15.04 45.64 11.57 47.47 11.57 47.47 10.79 37.8 10.79 37.8 4.95 35.05 4.95 35.05 2.17 31.69 2.17 31.69 4.95 28.95 4.95 28.95 10.79 19.27 10.79 19.27 11.57 21.1 11.57 21.1 15.04 18.27 15.04 14.49 15.04 14.49 88.04 14.49 88.04 14.49 88.04 52.25 88.04 52.25 88.04 56.02 88.04 59.8 88.04 63.57 88.04 67.35 88.04 71.12 88.04 74.9 88.04 78.67 88.04 82.45 88.04 86.22 88.04 90 88.04 90 88.04 93.78 88.04 97.55 88.04 101.33 88.04 105.1 88.04 108.88 88.04 112.65 88.04 116.43 88.04 120.2 88.04 123.98 88.04 127.75 88.04 127.75 88.04 127.75 88.04 165.5 88.04 165.5 88.04 165.5 83.71 165.5 79.93 165.5 74.42 165.5 70.64 165.5 65.13 165.5 61.34 165.5 55.83 165.5 52.05 165.5 46.54 165.5 42.75 165.5 37.24 165.5 33.46 165.5 27.95 165.5 24.16 165.5 18.83 165.5 15.04 165.5 15.04 161.73 15.04" fill="none" stroke="#000" stroke-linejoin="round" stroke-width="2"/>
        </g>
        <g id="shadows">
            <g>
                <polygon points="37.8 11.57 37.8 12.02 45.64 13.52 45.64 11.57 37.8 11.57" opacity=".1"/>
                <polygon points="21.11 11.57 21.11 12.02 28.95 13.52 28.95 11.57 21.11 11.57" opacity=".1"/>
                <polygon points="14.5 15.04 14.5 16.81 52.25 19.81 52.25 15.04 14.5 15.04" opacity=".1"/>
                <polygon points="14.5 27.95 14.5 28.83 52.25 30.33 52.25 27.95 14.5 27.95" opacity=".1"/>
                <polygon points="14.5 37.24 14.5 38.13 52.25 39.63 52.25 37.24 14.5 37.24" opacity=".1"/>
                <polygon points="14.5 46.54 14.5 47.42 52.25 48.92 52.25 46.54 14.5 46.54" opacity=".1"/>
                <polygon points="14.5 55.83 14.5 56.72 52.25 58.22 52.25 55.83 14.5 55.83" opacity=".1"/>
                <polygon points="14.5 65.13 14.5 66.01 52.25 67.51 52.25 65.13 14.5 65.13" opacity=".1"/>
                <polygon points="14.5 74.42 14.5 75.31 52.25 76.8 52.25 74.42 14.5 74.42" opacity=".1"/>
            </g>
            <g>
                <polygon points="151.06 11.57 151.06 12.02 158.9 13.52 158.9 11.57 151.06 11.57" opacity=".1"/>
                <polygon points="134.36 11.57 134.36 12.02 142.2 13.52 142.2 11.57 134.36 11.57" opacity=".1"/>
                <polygon points="127.75 15.04 127.75 16.81 165.51 19.81 165.5 15.04 127.75 15.04" opacity=".1"/>
                <polygon points="127.75 27.95 127.75 28.83 165.5 30.33 165.5 27.95 127.75 27.95" opacity=".1"/>
                <polygon points="127.75 37.24 127.75 38.13 165.5 39.63 165.5 37.24 127.75 37.24" opacity=".1"/>
                <polygon points="127.75 46.54 127.75 47.42 165.5 48.92 165.5 46.54 127.75 46.54" opacity=".1"/>
                <polygon points="127.75 55.83 127.75 56.72 165.5 58.22 165.5 55.83 127.75 55.83" opacity=".1"/>
                <polygon points="127.75 65.13 127.75 66.01 165.5 67.51 165.5 65.13 127.75 65.13" opacity=".1"/>
                <polygon points="127.75 74.42 127.75 75.31 165.5 76.8 165.5 74.42 127.75 74.42" opacity=".1"/>
            </g>
            <polygon points="52.25 71.66 52.25 73.43 127.75 76.43 127.75 71.66 52.25 71.66" opacity=".1"/>
            <rect x="14.5" y="83.7" width="151.01" height="4.34" opacity=".1"/>
        </g>
    </g>
</svg>