<?xml version="1.0" encoding="UTF-8"?><svg xmlns="http://www.w3.org/2000/svg" viewBox="0 0 180 90"><g id="outlines"><g><g><g><rect x="31.01" y="30.94" width="117.98" height="57.07" fill="#fff" stroke="#000" stroke-miterlimit="10" stroke-width=".5"/><rect x="65.46" y="30.94" width="49.09" height="57.07" fill="#fff" stroke="#000" stroke-miterlimit="10" stroke-width=".5"/><g><polygon points="68.55 32.48 71.7 26.01 87.67 21.92 90.4 33.06 87.19 35.82 68.55 32.48" fill="#fff" stroke="#000" stroke-miterlimit="10" stroke-width=".5"/><polygon points="111.45 32.48 108.3 26.01 92.33 21.92 89.6 33.06 92.81 35.82 111.45 32.48" fill="#fff" stroke="#000" stroke-miterlimit="10" stroke-width=".5"/></g><g><polygon points="27.88 31.43 34.98 26.01 71.03 21.92 72.98 33.06 69.94 35.82 27.88 31.43" fill="#fff" stroke="#000" stroke-miterlimit="10" stroke-width=".5"/><polygon points="152.12 31.43 145.02 26.01 108.97 21.92 107.02 33.06 110.06 35.82 152.12 31.43" fill="#fff" stroke="#000" stroke-miterlimit="10" stroke-width=".5"/></g><g><path d="M95.65,44.8c0-16.82-5.61-41.28-5.61-41.28,0,0-14.64,21.04-14.64,41.28v43.2h20.25V44.8Z" fill="#fff"/><path d="M95.65,44.8c0-16.82-5.61-41.28-5.61-41.28,0,0-14.64,21.04-14.64,41.28v43.2h20.25V44.8Z" fill="none" stroke="#000" stroke-miterlimit="10" stroke-width=".5"/><path d="M78.56,84.86V44.8c0-12.32,5.87-25.19,10.03-32.77,1.63,8.49,3.92,22.26,3.92,32.77v40.05h-13.95Z" fill="none" stroke="#000" stroke-miterlimit="10" stroke-width=".5"/></g><rect x="75.41" y="78.38" width="20.65" height="9.62" fill="#fff" stroke="#000" stroke-miterlimit="10" stroke-width=".5"/><polygon points="71.36 70.69 75.41 78.38 96.05 78.38 100.1 70.69 85.73 75.98 71.36 70.69" fill="#fff" stroke="#000" stroke-miterlimit="10" stroke-width=".5"/><rect x="68.55" y="41.03" width="2.81" height="5.47" fill="#fff" stroke="#000" stroke-miterlimit="10" stroke-width=".5"/><rect x="68.55" y="51.51" width="2.81" height="5.47" fill="#fff" stroke="#000" stroke-miterlimit="10" stroke-width=".5"/><rect x="68.55" y="61.98" width="2.81" height="5.47" fill="#fff" stroke="#000" stroke-miterlimit="10" stroke-width=".5"/><rect x="99.02" y="41.03" width="2.81" height="5.47" fill="#fff" stroke="#000" stroke-miterlimit="10" stroke-width=".5"/><rect x="100.07" y="51.51" width="2.81" height="5.47" fill="#fff" stroke="#000" stroke-miterlimit="10" stroke-width=".5"/><rect x="100.07" y="61.98" width="2.81" height="5.47" fill="#fff" stroke="#000" stroke-miterlimit="10" stroke-width=".5"/><rect x="104.27" y="41.03" width="5.18" height="5.47" fill="#fff" stroke="#000" stroke-miterlimit="10" stroke-width=".5"/><rect x="105.32" y="51.51" width="5.18" height="5.47" fill="#fff" stroke="#000" stroke-miterlimit="10" stroke-width=".5"/><rect x="105.32" y="61.98" width="5.18" height="5.47" fill="#fff" stroke="#000" stroke-miterlimit="10" stroke-width=".5"/><rect x="100.07" y="75.61" width="2.81" height="5.47" fill="#fff" stroke="#000" stroke-miterlimit="10" stroke-width=".5"/><rect x="105.32" y="75.61" width="5.18" height="5.47" fill="#fff" stroke="#000" stroke-miterlimit="10" stroke-width=".5"/><rect x="68.55" y="75.61" width="2.81" height="5.47" fill="#fff" stroke="#000" stroke-miterlimit="10" stroke-width=".5"/><g><rect x="42.78" y="41.03" width="5.18" height="5.47" fill="#fff" stroke="#000" stroke-miterlimit="10" stroke-width=".5"/><rect x="47.98" y="61.91" width="5.18" height="5.47" fill="#fff" stroke="#000" stroke-miterlimit="10" stroke-width=".5"/><rect x="42.15" y="75.61" width="5.18" height="5.47" fill="#fff" stroke="#000" stroke-miterlimit="10" stroke-width=".5"/><rect x="55.67" y="61.91" width="5.18" height="5.47" fill="#fff" stroke="#000" stroke-miterlimit="10" stroke-width=".5"/><rect x="48.93" y="51.51" width="5.18" height="5.47" fill="#fff" stroke="#000" stroke-miterlimit="10" stroke-width=".5"/><rect x="50.55" y="41.03" width="5.18" height="5.47" fill="#fff" stroke="#000" stroke-miterlimit="10" stroke-width=".5"/><rect x="58.04" y="41.03" width="2.81" height="5.47" fill="#fff" stroke="#000" stroke-miterlimit="10" stroke-width=".5"/><rect x="58.04" y="51.51" width="2.81" height="5.47" fill="#fff" stroke="#000" stroke-miterlimit="10" stroke-width=".5"/><rect x="58.04" y="75.61" width="2.81" height="5.47" fill="#fff" stroke="#000" stroke-miterlimit="10" stroke-width=".5"/><rect x="43.33" y="51.51" width="2.81" height="5.47" fill="#fff" stroke="#000" stroke-miterlimit="10" stroke-width=".5"/><rect x="42.56" y="61.98" width="2.81" height="5.47" fill="#fff" stroke="#000" stroke-miterlimit="10" stroke-width=".5"/><rect x="52.71" y="75.61" width="2.81" height="5.47" fill="#fff" stroke="#000" stroke-miterlimit="10" stroke-width=".5"/><rect x="37.03" y="41.03" width="2.81" height="5.47" fill="#fff" stroke="#000" stroke-miterlimit="10" stroke-width=".5"/><rect x="37.03" y="51.51" width="2.81" height="5.47" fill="#fff" stroke="#000" stroke-miterlimit="10" stroke-width=".5"/><rect x="37.03" y="61.98" width="2.81" height="5.47" fill="#fff" stroke="#000" stroke-miterlimit="10" stroke-width=".5"/><rect x="37.03" y="75.61" width="2.81" height="5.47" fill="#fff" stroke="#000" stroke-miterlimit="10" stroke-width=".5"/></g><g><rect x="131.77" y="41.03" width="5.18" height="5.47" fill="#fff" stroke="#000" stroke-miterlimit="10" stroke-width=".5"/><rect x="126.57" y="61.91" width="5.18" height="5.47" fill="#fff" stroke="#000" stroke-miterlimit="10" stroke-width=".5"/><rect x="132.41" y="75.61" width="5.18" height="5.47" fill="#fff" stroke="#000" stroke-miterlimit="10" stroke-width=".5"/><rect x="118.89" y="61.91" width="5.18" height="5.47" fill="#fff" stroke="#000" stroke-miterlimit="10" stroke-width=".5"/><rect x="125.63" y="51.51" width="5.18" height="5.47" fill="#fff" stroke="#000" stroke-miterlimit="10" stroke-width=".5"/><rect x="124" y="41.03" width="5.18" height="5.47" fill="#fff" stroke="#000" stroke-miterlimit="10" stroke-width=".5"/><rect x="118.89" y="41.03" width="2.81" height="5.47" fill="#fff" stroke="#000" stroke-miterlimit="10" stroke-width=".5"/><rect x="118.89" y="51.51" width="2.81" height="5.47" fill="#fff" stroke="#000" stroke-miterlimit="10" stroke-width=".5"/><rect x="118.89" y="75.61" width="2.81" height="5.47" fill="#fff" stroke="#000" stroke-miterlimit="10" stroke-width=".5"/><rect x="133.6" y="51.51" width="2.81" height="5.47" fill="#fff" stroke="#000" stroke-miterlimit="10" stroke-width=".5"/><rect x="134.37" y="61.98" width="2.81" height="5.47" fill="#fff" stroke="#000" stroke-miterlimit="10" stroke-width=".5"/><rect x="124.22" y="75.61" width="2.81" height="5.47" fill="#fff" stroke="#000" stroke-miterlimit="10" stroke-width=".5"/><rect x="139.9" y="41.03" width="2.81" height="5.47" fill="#fff" stroke="#000" stroke-miterlimit="10" stroke-width=".5"/><rect x="139.9" y="51.51" width="2.81" height="5.47" fill="#fff" stroke="#000" stroke-miterlimit="10" stroke-width=".5"/><rect x="139.9" y="61.98" width="2.81" height="5.47" fill="#fff" stroke="#000" stroke-miterlimit="10" stroke-width=".5"/><rect x="139.9" y="75.61" width="2.81" height="5.47" fill="#fff" stroke="#000" stroke-miterlimit="10" stroke-width=".5"/></g><rect x="79.92" y="78.38" width="11.62" height="9.62" fill="#fff" stroke="#000" stroke-miterlimit="10" stroke-width=".5"/><line x1="85.73" y1="78.4" x2="85.73" y2="88.01" fill="#fff" stroke="#000" stroke-miterlimit="10" stroke-width=".5"/><polyline points="48.38 33.57 49.87 48.3 55.29 50.22 57.18 58.83 65.46 60.58" fill="none" stroke="#000" stroke-miterlimit="10" stroke-width=".5"/><polyline points="131.62 33.57 130.13 48.3 124.71 50.22 122.82 58.83 114.54 60.58" fill="none" stroke="#000" stroke-miterlimit="10" stroke-width=".5"/><g><line x1="33.23" y1="27.34" x2="33.23" y2="31.99" fill="#fff" stroke="#000" stroke-miterlimit="10" stroke-width=".5"/><line x1="37.14" y1="25.76" x2="37.14" y2="32.4" fill="#fff" stroke="#000" stroke-miterlimit="10" stroke-width=".5"/><line x1="41.06" y1="25.3" x2="41.06" y2="32.81" fill="#fff" stroke="#000" stroke-miterlimit="10" stroke-width=".5"/><line x1="44.97" y1="24.87" x2="44.97" y2="33.21" fill="#fff" stroke="#000" stroke-miterlimit="10" stroke-width=".5"/><line x1="48.89" y1="24.43" x2="48.89" y2="33.57" fill="#fff" stroke="#000" stroke-miterlimit="10" stroke-width=".5"/><line x1="52.8" y1="23.99" x2="52.8" y2="34.01" fill="#fff" stroke="#000" stroke-miterlimit="10" stroke-width=".5"/><line x1="56.72" y1="23.52" x2="56.72" y2="34.44" fill="#fff" stroke="#000" stroke-miterlimit="10" stroke-width=".5"/><line x1="60.63" y1="23.1" x2="60.63" y2="34.85" fill="#fff" stroke="#000" stroke-miterlimit="10" stroke-width=".5"/><line x1="64.55" y1="22.66" x2="64.55" y2="35.23" fill="#fff" stroke="#000" stroke-miterlimit="10" stroke-width=".5"/><line x1="68.47" y1="22.21" x2="68.47" y2="35.65" fill="#fff" stroke="#000" stroke-miterlimit="10" stroke-width=".5"/><line x1="76.3" y1="24.83" x2="76.3" y2="33.84" fill="#fff" stroke="#000" stroke-miterlimit="10" stroke-width=".5"/></g><g><line x1="146.76" y1="27.34" x2="146.76" y2="31.99" fill="#fff" stroke="#000" stroke-miterlimit="10" stroke-width=".5"/><line x1="142.85" y1="25.76" x2="142.85" y2="32.4" fill="#fff" stroke="#000" stroke-miterlimit="10" stroke-width=".5"/><line x1="138.93" y1="25.3" x2="138.93" y2="32.81" fill="#fff" stroke="#000" stroke-miterlimit="10" stroke-width=".5"/><line x1="135.02" y1="24.87" x2="135.02" y2="33.21" fill="#fff" stroke="#000" stroke-miterlimit="10" stroke-width=".5"/><line x1="131.1" y1="24.43" x2="131.1" y2="33.57" fill="#fff" stroke="#000" stroke-miterlimit="10" stroke-width=".5"/><line x1="127.19" y1="23.99" x2="127.19" y2="34.01" fill="#fff" stroke="#000" stroke-miterlimit="10" stroke-width=".5"/><line x1="123.27" y1="23.52" x2="123.27" y2="34.44" fill="#fff" stroke="#000" stroke-miterlimit="10" stroke-width=".5"/><line x1="119.36" y1="23.1" x2="119.36" y2="34.85" fill="#fff" stroke="#000" stroke-miterlimit="10" stroke-width=".5"/><line x1="115.44" y1="22.66" x2="115.44" y2="35.23" fill="#fff" stroke="#000" stroke-miterlimit="10" stroke-width=".5"/><line x1="111.53" y1="22.21" x2="111.53" y2="35.65" fill="#fff" stroke="#000" stroke-miterlimit="10" stroke-width=".5"/><line x1="103.7" y1="24.83" x2="103.7" y2="33.84" fill="#fff" stroke="#000" stroke-miterlimit="10" stroke-width=".5"/><line x1="99.78" y1="23.83" x2="99.78" y2="34.57" fill="#fff" stroke="#000" stroke-miterlimit="10" stroke-width=".5"/><line x1="95.86" y1="22.83" x2="95.86" y2="35.3" fill="#fff" stroke="#000" stroke-miterlimit="10" stroke-width=".5"/></g></g><path d="M152.12,31.43l-7.1-5.43-36.05-4.08-.71,4.07-14.7-3.75c-1.59-10.33-3.52-18.71-3.52-18.71,0,0-6.1,8.79-10.43,20.46l-7.87,2.01-.71-4.07-36.05,4.08-7.1,5.43,3.13,.33v56.25h117.98V31.76l3.13-.33Z" fill="none" stroke="#000" stroke-linejoin="round" stroke-width="2"/><g><rect x="78.56" y="63.94" width="13.95" height="6.66" fill="#fff" stroke="#000" stroke-miterlimit="10" stroke-width=".5"/><rect x="78.56" y="57.25" width="13.95" height="6.66" fill="#fff" stroke="#000" stroke-miterlimit="10" stroke-width=".5"/><rect x="78.56" y="50.56" width="13.95" height="6.66" fill="#fff" stroke="#000" stroke-miterlimit="10" stroke-width=".5"/><rect x="78.56" y="43.86" width="13.95" height="6.66" fill="#fff" stroke="#000" stroke-miterlimit="10" stroke-width=".5"/><polygon points="87.16 34.85 85.53 34.85 83.36 36.13 82.43 39.72 85.53 42.27 89.36 39.6 88.81 35.82 87.16 34.85" fill="#fff" stroke="#000" stroke-miterlimit="10" stroke-width=".5"/><line x1="85.53" y1="42.27" x2="85.53" y2="70.39" fill="#fff" stroke="#000" stroke-miterlimit="10" stroke-width=".5"/><polygon points="84.77 29.44 85.53 34.85 87.16 34.85 87.97 29.44 84.77 29.44" fill="#fff" stroke="#000" stroke-miterlimit="10" stroke-width=".5"/><polygon points="84.77 24.43 84.77 29.44 87.97 29.44 87.97 24.43 86.95 20.41 84.77 24.43" fill="#fff" stroke="#000" stroke-miterlimit="10" stroke-width=".5"/><line x1="88.58" y1="12.03" x2="86.95" y2="20.41" fill="#fff" stroke="#000" stroke-miterlimit="10" stroke-width=".5"/><line x1="82.43" y1="39.72" x2="78.87" y2="39.72" fill="#fff" stroke="#000" stroke-miterlimit="10" stroke-width=".5"/><line x1="89.36" y1="39.6" x2="92.35" y2="39.6" fill="#fff" stroke="#000" stroke-miterlimit="10" stroke-width=".5"/><line x1="88.81" y1="35.82" x2="91.85" y2="33.57" fill="#fff" stroke="#000" stroke-miterlimit="10" stroke-width=".5"/><line x1="83.36" y1="36.13" x2="79.97" y2="33.57" fill="#fff" stroke="#000" stroke-miterlimit="10" stroke-width=".5"/><line x1="84.77" y1="29.44" x2="80.84" y2="30.3" fill="#fff" stroke="#000" stroke-miterlimit="10" stroke-width=".5"/><line x1="91.57" y1="30.94" x2="87.97" y2="29.44" fill="#fff" stroke="#000" stroke-miterlimit="10" stroke-width=".5"/><line x1="87.97" y1="24.43" x2="90.43" y2="22.66" fill="#fff" stroke="#000" stroke-miterlimit="10" stroke-width=".5"/><line x1="82.99" y1="23.99" x2="84.77" y2="24.43" fill="#fff" stroke="#000" stroke-miterlimit="10" stroke-width=".5"/></g></g><path d="M152.12,31.43h0l-7.1-5.43-36.05-4.08-.71,4.07-14.7-3.75s0,0,0,0c-.1-.63-.2-1.25-.29-1.86,0-.04-.01-.07-.02-.11-1.21-7.49-2.52-13.66-3.01-15.86,0-.03-.01-.06-.02-.08-.03-.15-.06-.28-.09-.39,0-.02,0-.03-.01-.05-.05-.23-.08-.36-.08-.36,0,0-.02,.03-.06,.08-.01,.01-.02,.02-.03,.04-.04,.06-.09,.14-.16,.24-.01,.02-.02,.03-.03,.05-1.23,1.85-6.37,9.83-10.15,20.04,0,0,0,0,0,0l-7.87,2.01-.71-4.07-36.05,4.08-7.1,5.43h0s3.13,.33,3.13,.33v56.25h117.98V31.76l3.13-.33h0Z" fill="none" stroke="#000" stroke-linejoin="round" stroke-width="2"/></g></g><g id="shadows"><g opacity=".1"><g><polygon points="69.94 35.82 72.78 33.24 76.66 33.93 76.09 38.99 31.01 34.93 31.01 31.76 69.94 35.82"/><polygon points="110.06 35.82 148.99 31.76 148.99 38.56 110.51 37.03 97.11 38.24 95.2 35.45 107.02 33.06 110.06 35.82"/><polygon points="65.46 37.42 71.19 37.13 66.5 88.01 65.46 88.01 65.46 37.42"/><polygon points="96.05 78.42 75.41 78.38 75.41 80.03 96.05 84.4 96.05 78.42"/><polygon points="95.63 37.42 95.2 35.45 99.02 34.73 96.68 88.01 95.63 88.01 95.63 37.42"/><path d="M95.2,35.45l2.54-.51c-.4-3.4-2.26-11.39-4.18-12.69l1.64,13.21Z"/></g><g><polygon points="69.94 35.82 72.78 33.24 76.66 33.93 76.09 38.99 31.01 34.93 31.01 31.76 69.94 35.82" opacity=".1"/><polygon points="110.06 35.82 148.99 31.76 148.99 38.56 110.51 37.03 97.11 38.24 95.2 35.45 107.02 33.06 110.06 35.82" opacity=".1"/><polygon points="65.46 37.42 71.19 37.13 66.5 88.01 65.46 88.01 65.46 37.42" opacity=".1"/><polygon points="96.05 78.42 75.41 78.38 75.41 80.03 96.05 84.4 96.05 78.42" opacity=".1"/><polygon points="95.63 37.42 95.2 35.45 99.02 34.73 96.68 88.01 95.63 88.01 95.63 37.42" opacity=".1"/><path d="M95.2,35.45l2.54-.51c-.4-3.4-2.26-11.39-4.18-12.69l1.64,13.21Z" opacity=".1"/></g><g><polygon points="69.94 35.82 72.78 33.24 76.66 33.93 76.09 38.99 31.01 34.93 31.01 31.76 69.94 35.82" fill="none"/><polygon points="110.06 35.82 148.99 31.76 148.99 38.56 110.51 37.03 97.11 38.24 95.2 35.45 107.02 33.06 110.06 35.82" fill="none"/><polygon points="65.46 37.42 71.19 37.13 66.5 88.01 65.46 88.01 65.46 37.42" fill="none"/><polygon points="96.05 78.42 75.41 78.38 75.41 80.03 96.05 84.4 96.05 78.42" fill="none"/><polygon points="95.63 37.42 95.2 35.45 99.02 34.73 96.68 88.01 95.63 88.01 95.63 37.42" fill="none"/><path d="M95.2,35.45l2.54-.51c-.4-3.4-2.26-11.39-4.18-12.69l1.64,13.21Z" fill="none"/></g></g></g></svg>