<?xml version="1.0" encoding="UTF-8"?>
<svg id="Isolation_Mode" data-name="Isolation Mode" xmlns="http://www.w3.org/2000/svg" width="10" height="10" viewBox="0 0 10 10">
  <polyline points="8.14 7.68 8.14 8.88 2.53 8.88 2.53 3.2" fill="none" stroke="#000" stroke-linejoin="round" stroke-width=".5"/>
  <polyline points="2.53 2.7 2.53 1.12 8.14 1.12 8.14 7.18" fill="none" stroke="#000" stroke-linejoin="round" stroke-width=".5"/>
  <rect x="3.94" y="4.4" width="1.28" height="1.19" fill="none" stroke="#000" stroke-linecap="round" stroke-miterlimit="10" stroke-width=".25"/>
  <rect x="4.5" y="2.11" width="1.28" height="1.19" fill="none" stroke="#000" stroke-linecap="round" stroke-miterlimit="10" stroke-width=".25"/>
  <rect x="5.73" y="6.58" width="1.28" height="1.19" fill="none" stroke="#000" stroke-linecap="round" stroke-miterlimit="10" stroke-width=".25"/>
  <g>
    <line x1="1.8" y1="2.7" x2="3.81" y2="2.7" fill="none" stroke="#000" stroke-linejoin="round" stroke-width=".25"/>
    <polyline points="3.49 3.13 3.92 2.7 3.49 2.28" fill="none" stroke="#000" stroke-linecap="round" stroke-linejoin="round" stroke-width=".25"/>
  </g>
  <g>
    <line x1="7.57" y1="7.18" x2="9.34" y2="7.18" fill="none" stroke="#000" stroke-linejoin="round" stroke-width=".25"/>
    <polyline points="9.02 7.61 9.44 7.18 9.02 6.75" fill="none" stroke="#000" stroke-linecap="round" stroke-linejoin="round" stroke-width=".25"/>
  </g>
  <polyline points="6.34 2.7 7.29 2.7 7.29 5 5.79 5" fill="none" stroke="#000" stroke-linejoin="round" stroke-width=".25"/>
  <polyline points="4.22 6.02 4.22 7.18 5.16 7.18" fill="none" stroke="#000" stroke-linejoin="round" stroke-width=".25"/>
  <circle cx="2.53" cy="6.25" r="1.84" fill="#fff" stroke="#000" stroke-linecap="round" stroke-linejoin="round" stroke-width=".5"/>
  <polygon points="2.53 5.26 2.83 5.87 3.49 5.96 3.01 6.43 3.12 7.1 2.53 6.78 1.93 7.1 2.05 6.43 1.56 5.96 2.23 5.87 2.53 5.26" fill="none" stroke="#000" stroke-linecap="round" stroke-linejoin="round" stroke-width=".25"/>
</svg>