<?xml version="1.0" encoding="UTF-8"?>
<svg id="Layer_1" data-name="Layer 1" xmlns="http://www.w3.org/2000/svg" width="10" height="10" viewBox="0 0 10 10">
  <g>
    <circle cx="5" cy="5" r="3.45" fill="#fff" stroke="#000" stroke-miterlimit="10" stroke-width=".5"/>
    <path d="m4.42,1.72c.45-.08.92-.05,1.34.15.45.21.7.69.45,1.15-.52.92-2.21,1.22-3.01.53-.4-.35-.33-.88.03-1.23.32-.33.76-.52,1.2-.6" fill="none" stroke="#000" stroke-linecap="round" stroke-linejoin="round" stroke-width=".25"/>
    <path d="m7.18,2.4c.73.59.66,1.51.04,2.16-.55.59-1.33.92-2.11,1.06-.78.13-1.63.09-2.35-.28-.8-.39-1.18-1.24-.7-2.04" fill="none" stroke="#000" stroke-linecap="round" stroke-linejoin="round" stroke-width=".25"/>
    <path d="m1.75,5.95c.12.28.31.51.54.69.37.3.86.48,1.37.57h0c.59.11,1.22.09,1.73,0,.02,0,.04,0,.06-.01.49-.09,1.07-.28,1.57-.58.45-.26.84-.59,1.09-1,.15-.25.25-.53.27-.84h0" fill="none" stroke="#000" stroke-linecap="round" stroke-linejoin="round" stroke-width=".25"/>
    <path d="m5.62,1.67c-.49-.06-.83.42-1.07.78" fill="none" stroke="#000" stroke-linecap="round" stroke-linejoin="round" stroke-width=".25"/>
    <path d="m8.25,4.03c-.13-.31-.32-.58-.56-.8-.38-.35-.87-.59-1.4-.72-.58-.14-1.19-.16-1.74-.05" fill="none" stroke="#000" stroke-linecap="round" stroke-linejoin="round" stroke-width=".25"/>
    <path d="m6.88,7.85c.24-.3.22-.8.14-1.24-.04-.22-.1-.43-.14-.59-.1-.31-.22-.61-.35-.9-.24-.54-.54-1.05-.9-1.52-.31-.42-.67-.8-1.07-1.13" fill="none" stroke="#000" stroke-linecap="round" stroke-linejoin="round" stroke-width=".25"/>
    <path d="m4.21,8.32c-.33-.2-.48-.67-.55-1.12-.04-.22-.06-.44-.07-.61,0-.32,0-.65.02-.97.05-.59.15-1.17.32-1.74.15-.5.36-.98.62-1.43" fill="none" stroke="#000" stroke-linecap="round" stroke-linejoin="round" stroke-width=".25"/>
    <path d="m1.61,5.2c.01-.34.1-.65.25-.94.24-.46.62-.85,1.07-1.15.49-.33,1.07-.56,1.62-.64" fill="none" stroke="#000" stroke-linecap="round" stroke-linejoin="round" stroke-width=".25"/>
    <path d="m3.28,2.09c.44-.22.92.11,1.27.37" fill="none" stroke="#000" stroke-linecap="round" stroke-linejoin="round" stroke-width=".25"/>
  </g>
  <g>
    <path d="m7.1,6.23c.03-.07.1-.12.21-.17l.19-.09c.21-.1.35-.23.43-.4.07-.17.11-.39.11-.65s-.05-.47-.16-.61-.25-.2-.42-.2-.32.05-.41.15c-.09.1-.14.23-.14.39v.25c0,.17-.04.3-.13.39-.08.09-.2.14-.35.14-.13,0-.24-.04-.32-.13-.08-.09-.12-.2-.12-.36,0-.2.06-.38.2-.55.13-.17.31-.3.53-.41.23-.1.48-.16.77-.16.48,0,.84.1,1.09.31.25.2.38.49.38.86,0,.29-.08.53-.24.73-.16.2-.42.35-.78.46l-.21.06c-.06.02-.11.05-.14.08s-.05.09-.06.17l-.04.55c-.02.06-.04.11-.07.13-.03.02-.06.04-.11.04-.05,0-.09-.01-.12-.04-.03-.03-.05-.07-.06-.12l-.05-.59c-.02-.1,0-.19.03-.26Zm.47,2.47c.08-.05.15-.12.19-.2.05-.08.07-.18.07-.28s-.02-.2-.07-.28-.11-.15-.19-.2c-.08-.05-.17-.07-.28-.07-.1,0-.19.02-.27.07-.08.05-.15.12-.2.2s-.07.18-.07.28.02.19.07.28c.05.08.11.15.2.2.08.05.17.08.27.08.1,0,.2-.03.28-.08Z" fill="none" stroke="#fff" stroke-linejoin="round" stroke-width="2"/>
    <path d="m7.1,6.23c.03-.07.1-.12.21-.17l.19-.09c.21-.1.35-.23.43-.4.07-.17.11-.39.11-.65s-.05-.47-.16-.61-.25-.2-.42-.2-.32.05-.41.15c-.09.1-.14.23-.14.39v.25c0,.17-.04.3-.13.39-.08.09-.2.14-.35.14-.13,0-.24-.04-.32-.13-.08-.09-.12-.2-.12-.36,0-.2.06-.38.2-.55.13-.17.31-.3.53-.41.23-.1.48-.16.77-.16.48,0,.84.1,1.09.31.25.2.38.49.38.86,0,.29-.08.53-.24.73-.16.2-.42.35-.78.46l-.21.06c-.06.02-.11.05-.14.08s-.05.09-.06.17l-.04.55c-.02.06-.04.11-.07.13-.03.02-.06.04-.11.04-.05,0-.09-.01-.12-.04-.03-.03-.05-.07-.06-.12l-.05-.59c-.02-.1,0-.19.03-.26Zm.47,2.47c.08-.05.15-.12.19-.2.05-.08.07-.18.07-.28s-.02-.2-.07-.28-.11-.15-.19-.2c-.08-.05-.17-.07-.28-.07-.1,0-.19.02-.27.07-.08.05-.15.12-.2.2s-.07.18-.07.28.02.19.07.28c.05.08.11.15.2.2.08.05.17.08.27.08.1,0,.2-.03.28-.08Z"/>
  </g>
</svg>