<?xml version="1.0" encoding="UTF-8"?>
<svg id="Layer_1" data-name="Layer 1" xmlns="http://www.w3.org/2000/svg" width="10" height="10" viewBox="0 0 10 10">
  <circle cx="5" cy="5" r="3.45" fill="#fff" stroke="#000" stroke-miterlimit="10" stroke-width=".5"/>
  <path d="m5.77,4.47v2.09c0,.08,0,.13.02.17.01.03.03.06.06.07l.07.03s.08.04.1.07c.02.03.03.06.03.1,0,.06-.02.1-.05.13-.04.03-.09.05-.17.05h-1.37c-.08,0-.13-.02-.17-.05-.04-.03-.05-.07-.05-.13,0-.04.01-.07.03-.1.02-.03.05-.05.1-.07l.07-.03s.05-.04.06-.07c.01-.03.02-.09.02-.17v-1.43c0-.06,0-.11-.03-.13-.02-.03-.04-.04-.08-.05l-.07-.02s-.07-.03-.09-.06-.03-.06-.03-.1c0-.05.01-.08.04-.11.03-.03.07-.06.14-.08l.68-.26c.11-.04.19-.07.25-.09.06-.02.11-.03.16-.03.09,0,.16.02.21.08.05.05.07.11.07.19Zm-.7-.52c-.22,0-.4-.05-.53-.16-.13-.1-.19-.25-.19-.42s.06-.32.19-.42c.13-.1.31-.15.53-.15s.4.05.53.15c.13.1.19.24.19.42s-.06.32-.19.42-.31.16-.53.16Z"/>
</svg>