<?xml version="1.0" encoding="utf-8"?>
<!-- Generator: Adobe Illustrator 28.2.0, SVG Export Plug-In . SVG Version: 6.00 Build 0)  -->
<svg version="1.1" id="ITC-Logo"
	xmlns:svg="http://www.w3.org/2000/svg"
	xmlns="http://www.w3.org/2000/svg"
	xmlns:xlink="http://www.w3.org/1999/xlink" x="0px" y="0px" viewBox="0 0 1170.8 346.5" style="enable-background:new 0 0 1170.8 346.5;" xml:space="preserve">
	<g id="itc" data-color="foreground" transform="matrix(14.745224,0,0,14.745224,-2960.9411,-3348.0204)">
		<rect id="rect12" x="268.4" y="247.5" width="1.9" height="2.9"/>
		<polygon id="polygon13" points="274.4,250.4 272.5,250.4 272.5,248.4 271.4,248.4 271.4,247.5 275.5,247.5 275.5,248.4 
		274.4,248.4 	"/>
		<path id="path13" d="M280.1,248.6c-0.3-0.2-0.7-0.3-1.1-0.3c-0.6,0-1,0.2-1,0.6c0,0.3,0.5,0.6,1.1,0.6c0.5,0,0.8-0.1,1.1-0.3l0,1.1
		c-0.3,0.1-1,0.1-1.4,0.1c-1.5,0-2.7-0.7-2.7-1.5c0-0.9,1.2-1.5,2.7-1.5c0.5,0,0.9,0,1.3,0.1L280.1,248.6z"/>
	</g>
	<g id="big-swoosh" data-color="primary" transform="matrix(14.745224,0,0,14.745224,-2960.9411,-3348.0204)">
		<path id="path14" d="M263.1,231.4c0,0-0.1,0.1-0.1,0.2c0,0,0,0,0,0s0,0.1,0,0.1s0,0,0,0c0,0-0.1,0.1-0.1,0.2c0,0,0,0,0,0.1
		c0,0-0.1,0.1-0.1,0.2c0,0.1,0,0.1-0.1,0.2l0,0c0,0,0,0.1,0,0.1l0,0v0c0,0,0,0.1-0.1,0.1c0,0,0,0.1,0,0.1c0,0,0,0,0,0.1v0
		c0,0-0.1,0.1-0.1,0.1c0,0-0.1,0.2,0,0.2c0,0-0.2,0.1-0.1,0.2v0c0,0,0,0,0,0c0,0-0.1,0.1-0.1,0.1c0,0,0,0,0,0h0c0,0,0,0.1,0,0.2v0
		c0,0,0,0,0,0.1v0c0,0.1,0,0.2-0.1,0.2c0,0-0.1,0.1-0.1,0.1c0,0,0,0,0,0c0,0,0,0,0,0s0,0.1,0,0.1c0,0,0,0,0,0s0,0.1,0,0.1
		c0,0,0,0.1-0.1,0.1c0,0,0,0.1,0,0.2s0,0.1,0,0.1c0,0,0,0,0,0v0v0c0,0.1,0,0.2,0,0.2c0,0,0,0,0,0c0,0,0,0.1,0,0.2s0,0.1,0,0.2
		c0,0,0,0,0,0c0,0.1,0,0.2,0,0.2v0c0,0,0,0.1,0,0.1s0,0.1,0,0.2c0,0.1,0,0.1,0,0.2l0,0c0,0,0,0.1,0,0.1c0,0.1,0,0.2,0,0.3v0
		c0,0.1,0,0.2,0,0.3l0,0c0,0,0,0.1,0,0.1c0,0,0,0,0,0c0,0,0,0,0-0.1h0c0,0,0,0,0-0.1c0-0.1,0-0.2,0-0.2c0,0,0-0.1,0-0.1l0,0v0
		c0,0,0,0,0-0.1h0c0,0,0,0,0-0.1c0,0,0,0,0,0v0c0-0.1-0.1-0.1-0.1-0.2c0,0,0,0,0,0c0,0,0-0.1,0-0.1c0,0,0,0,0,0v0c0-0.1,0-0.1,0-0.2
		c0,0,0-0.1,0-0.2c0,0,0,0,0-0.1s0-0.1,0-0.1s0-0.1,0-0.1c0,0,0,0,0-0.1l0,0c0,0,0-0.1,0-0.1s0,0,0-0.1l0,0v0c0,0,0-0.1,0-0.2
		s0,0,0-0.1c0,0,0,0,0,0c0-0.1,0-0.1,0-0.2c0,0,0,0,0,0c0,0,0-0.1,0-0.1c0-0.1,0-0.1,0.1-0.2c0-0.1,0-0.1,0-0.2s0,0,0-0.1l0,0v0
		c0,0,0-0.1,0-0.1c0,0,0,0,0.1,0c0-0.1,0-0.1,0-0.2l0.1-0.1c0,0,0-0.1,0-0.1c0,0,0-0.1,0-0.2c0,0,0,0,0-0.1s0.1-0.2,0.2-0.2v0
		c0,0,0-0.1,0-0.2c0,0,0-0.1,0.1-0.1c0,0,0,0,0,0c0,0,0-0.1,0-0.1h0c0,0,0-0.1,0-0.1c0,0,0-0.1,0.1-0.1c0,0,0,0,0,0c0,0,0,0,0,0
		c0,0,0,0,0-0.1v0c0,0,0,0,0,0c0,0,0-0.1,0-0.1c0,0,0,0,0,0c0-0.1,0.1-0.1,0.1-0.2c0,0,0,0,0,0c0,0,0,0,0,0c0,0,0,0,0-0.1l0,0v0l0,0
		c0,0,0,0,0,0C263.1,231.5,263.1,231.5,263.1,231.4c0,0,0.1,0,0.1-0.1s0-0.1,0-0.1c0,0,0,0,0,0s0-0.1,0.1-0.1c0,0,0,0,0,0
		c0,0,0,0,0,0.1c0,0,0,0,0,0C263.1,231.3,263.1,231.3,263.1,231.4L263.1,231.4 M261.5,232.8L261.5,232.8
		C261.5,232.8,261.6,232.8,261.5,232.8C261.6,232.9,261.5,232.9,261.5,232.8C261.5,232.9,261.5,232.8,261.5,232.8 M261.2,233.3
		c0,0.1,0,0.2-0.1,0.2v0c0,0,0,0.1,0,0.1s0,0.1,0,0.1s0,0.1,0,0.1s0,0,0,0.1v0c0,0,0,0,0,0v0c0,0,0,0,0,0l0,0c0-0.1,0-0.1,0-0.2
		c0,0,0,0,0,0c0,0,0,0,0-0.1c0,0,0,0,0-0.1l0,0c0,0,0-0.1,0-0.1c0,0,0,0,0,0l0,0c0,0,0,0,0-0.1v0c0,0,0-0.1,0.1-0.2v0
		C261.1,233.3,261.1,233.2,261.2,233.3l-0.1-0.1l0,0L261.2,233.3C261.2,233.2,261.2,233.2,261.2,233.3 M260.9,234.3L260.9,234.3
		C260.9,234.3,260.9,234.4,260.9,234.3c0,0.1,0,0.1,0,0.1c0,0.1,0,0.2-0.1,0.3l0,0c0,0,0,0,0-0.1v0v0c0,0,0,0,0-0.1
		S260.8,234.4,260.9,234.3C260.8,234.3,260.8,234.3,260.9,234.3C260.8,234.2,260.9,234.2,260.9,234.3
		C260.9,234.2,260.9,234.2,260.9,234.3 M261.6,232.4C261.6,232.4,261.6,232.4,261.6,232.4L261.6,232.4L261.6,232.4
		C261.7,232.4,261.6,232.4,261.6,232.4C261.6,232.4,261.6,232.3,261.6,232.4L261.6,232.4c0.1-0.1,0.1-0.1,0-0.1l0,0c0,0,0,0,0,0
		c0,0,0,0,0-0.1s0,0,0-0.1s0,0,0,0l0,0c0,0,0,0,0,0s0,0,0,0s0,0,0,0s0,0,0,0s0-0.1,0.1-0.1c0,0,0,0,0,0.1c0,0,0,0,0,0s0,0,0,0.1
		c0,0,0,0.1,0,0.1v0l0,0C261.6,232.4,261.6,232.4,261.6,232.4v0.1l0,0c0,0,0,0.1,0,0.1c0,0,0,0.1-0.1,0.2c0,0,0,0,0,0h0
		c0,0,0,0,0-0.1c0,0,0,0,0-0.1l0,0C261.6,232.5,261.6,232.5,261.6,232.4C261.6,232.5,261.6,232.5,261.6,232.4
		C261.6,232.5,261.6,232.5,261.6,232.4 M262.1,231.6C262.1,231.6,262.1,231.5,262.1,231.6c0.1-0.1,0.1-0.1,0.2-0.2v0l0,0v0
		c0,0,0,0,0,0s0-0.1,0-0.1c0,0,0.1,0,0.1,0s0,0,0,0c0,0,0,0,0-0.1c0,0,0,0,0,0v0c0,0,0-0.1,0-0.1l0,0c0,0,0,0,0.1,0c0,0,0,0,0-0.1
		c0,0,0,0,0.1-0.1c0,0,0,0,0-0.1c0,0,0,0,0,0v0c0,0,0,0,0.1,0c0,0,0,0,0,0s0,0,0,0s0-0.1,0.1-0.1l0,0c0,0,0,0,0,0c0,0,0,0,0,0
		s0,0,0,0c0,0,0,0,0,0c0,0-0.1,0-0.1,0.1s0,0-0.1,0.1c0,0,0,0,0,0l0,0c0,0,0,0,0,0.1c0,0,0,0,0,0c0,0,0,0,0,0c0,0,0,0,0,0s0,0,0,0.1
		c0,0-0.1,0.1-0.1,0.2c0,0,0,0,0,0.1s0,0-0.1,0.1c0,0,0,0.1-0.1,0.1c0,0,0,0-0.1,0C262.2,231.5,262.2,231.6,262.1,231.6L262.1,231.6
		L262.1,231.6L262.1,231.6C262.1,231.6,262.1,231.6,262.1,231.6L262.1,231.6C262.1,231.6,262.1,231.6,262.1,231.6L262.1,231.6
		 M263.2,230.2c0-0.1,0.1-0.1,0.2-0.2c0,0,0,0,0,0s0-0.1,0-0.1l0,0c0,0,0,0,0,0c0,0,0,0,0,0s0,0,0,0l0,0h0h0v0c0,0,0,0,0.1,0
		c0,0,0.1-0.1,0.1-0.1c0,0,0,0,0,0c0,0,0,0,0,0h0c0,0,0,0,0,0c0,0,0,0,0-0.1l0,0c0,0,0,0,0,0s0,0,0,0.1v0c0,0-0.1,0.1-0.2,0.1
		c0,0,0,0,0,0c0,0,0,0-0.1,0l0,0c0,0,0,0,0,0.1c0,0,0,0,0,0.1c0,0,0,0,0,0c0,0,0,0-0.1,0.1c0,0,0,0,0,0S263.2,230.1,263.2,230.2
		C263.2,230.2,263.2,230.2,263.2,230.2C263.2,230.2,263.2,230.2,263.2,230.2C263.2,230.2,263.2,230.3,263.2,230.2
		C263.1,230.3,263.2,230.2,263.2,230.2 M260.6,237.5C260.6,237.5,260.6,237.4,260.6,237.5C260.6,237.4,260.6,237.4,260.6,237.5
		c0-0.1,0-0.1,0-0.1c0,0,0-0.1,0-0.1v0c0,0,0-0.1,0-0.1c0,0,0-0.1,0-0.2c0,0,0,0,0-0.1v0v0c0,0,0,0,0,0l0,0c0,0,0-0.1,0-0.1v0
		c0,0,0-0.1,0-0.1v0c0,0,0-0.1,0-0.2c0,0,0,0,0,0s0,0,0-0.1v0l0,0c0,0,0-0.1,0-0.1v0c0,0,0,0,0,0l0,0l0,0v0l0,0c0,0,0,0.1,0,0.1
		c0,0,0,0.1,0,0.2v0c0,0,0,0.1,0,0.1v0c0,0,0,0,0,0.1s0,0,0,0.1c0,0,0,0.1,0,0.1v0c0,0,0,0.1,0,0.2c0,0,0,0.1,0,0.1c0,0,0,0.1,0,0.2
		l0,0c0,0,0,0.1,0,0.1s0,0,0,0C260.6,237.3,260.6,237.4,260.6,237.5L260.6,237.5 M268.9,227.1L268.9,227.1L268.9,227.1
		C268.9,227.1,268.9,227.1,268.9,227.1 M272.2,227.9c0.1,0,0.1,0,0.2,0c0,0,0,0,0,0c0,0,0,0,0,0h0c0,0-0.1,0-0.1,0
		S272.3,228,272.2,227.9C272.2,228,272.2,228,272.2,227.9C272.1,227.9,272.1,227.9,272.2,227.9 M260.3,236.2L260.3,236.2
		C260.3,236.2,260.3,236.2,260.3,236.2c-0.2,1.2,0.9,5.6,4.6,7.5l0,0c0,0,0.1,0,0.1,0c0.1,0,0.2,0.1,0.3,0.2c0,0,0.1,0,0.2,0.1
		c0,0,0.1,0,0.1,0.1c0.2,0.1,0.4,0.2,0.6,0.4c0.2,0.1,0.3,0.2,0.5,0.2c-0.2-0.1-0.2-0.1-0.4-0.2c-0.1-0.1-0.2-0.1-0.3-0.2
		c0,0-0.1-0.1-0.1-0.1c-0.1,0,0,0-0.1,0c0,0-0.2-0.1-0.2-0.1c-0.1,0-0.2-0.2-0.3-0.2c0,0-0.2-0.1-0.2-0.2c0,0-0.1-0.1-0.1-0.1
		c0,0-0.1-0.1-0.1-0.1c0,0-0.1-0.1-0.1-0.1c0-0.1-0.2-0.2-0.2-0.3c-0.1-0.1-0.1-0.2-0.2-0.3c0,0-0.1-0.1-0.1-0.1
		c-0.1-0.2-0.2-0.3-0.2-0.5c-0.1-0.2-0.1-0.2-0.2-0.5l-0.1-0.1c-2-3-0.9-7,0.7-9c2.5-3.1,6.8-3.6,9.1-3.7c-0.1,0-0.1-0.1-0.2-0.2
		c0,0-0.1-0.1-0.2-0.1h0c0,0,0,0-0.1,0c0,0,0,0,0,0c0,0-0.1,0-0.1,0c0,0,0,0.1,0,0.1c0,0-0.1,0-0.1,0c0,0,0,0,0-0.1
		c-0.1,0-0.1,0-0.2,0c0,0-0.1,0-0.2,0h0c0,0-0.2,0-0.2,0l0-0.1c0,0,0.2,0,0.2,0c0,0,0.1,0,0.1,0c0,0,0,0,0.1,0c0,0,0.1,0,0.1,0h0
		c-0.1-0.1-0.2-0.2-0.3-0.2c0,0-0.2-0.1-0.2-0.1c0,0-0.2,0-0.2,0c0,0-0.1,0-0.1,0c0,0,0.2,0,0.2,0c0,0,0.1,0,0.1,0l0,0
		c0,0,0,0-0.1,0h0c-0.1,0-0.1-0.1-0.2-0.1c-0.1-0.1-0.3-0.1-0.4-0.2c-0.1,0-0.5-0.2-0.7-0.2c-0.1,0-0.2,0-0.3,0
		c-0.2,0-0.7,0.1-0.9,0.1c0.1,0,0.2-0.1,0.4-0.1c0,0-0.2,0-0.2,0c-0.1,0-0.2,0-0.4,0c-0.2,0-0.7,0.1-0.7,0.1c0,0-0.2,0-0.2,0l0,0
		c0.1,0,0.2,0,0.2,0c0,0,0,0,0,0c-0.2,0-0.8,0.2-0.8,0.2l0,0c0,0-0.2,0.1-0.2,0.1c0,0-0.1,0-0.1,0h0c0,0-0.2,0.1-0.3,0.1
		s-0.2,0.1-0.2,0.1c0,0,0,0,0,0c0,0,0,0-0.1,0c0,0,0,0-0.1,0l0,0c-0.1,0-0.2,0.1-0.2,0.1c-0.2,0.1-0.7,0.3-0.7,0.3c0,0,0,0-0.1,0h0
		l-0.1,0c0,0-0.2,0.1-0.2,0.1c0,0-0.1,0-0.1,0l-0.1,0.1c0,0,0.1,0,0.1,0c0,0-0.1,0.1-0.2,0.1c0,0-0.1,0-0.1,0s0.1,0,0.1,0v0
		c0,0,0.1-0.1,0.2-0.1c0,0,0,0,0.1,0c0,0,0.1-0.1,0.1-0.1c0,0,0.2-0.1,0.2-0.1c0,0,0.1,0,0.1,0l0,0c0,0,0,0,0.1,0c0,0,0,0,0.1-0.1
		c0,0,0.5-0.2,0.5-0.2c0,0,0.1,0,0.1,0l0,0c0,0,0,0,0,0c0,0,0,0,0.1,0c0,0,0,0,0.1,0h0v0h0l0,0c0,0,0,0,0.1,0c0,0,0,0,0,0
		c0,0,0,0,0.1,0c0,0,0.1,0,0.1,0c0,0,0,0,0,0s0,0,0,0h0c0,0,0,0,0,0c0,0,0,0,0.1,0c0,0,0.1,0,0.2,0c0,0,0,0,0,0c0,0,0,0,0.1,0h0.1h0
		c0,0,0,0,0.1,0c0,0,0.1,0,0.1-0.1h0l0,0c0,0-0.1,0-0.2,0c0,0,0,0,0,0c0,0,0,0,0,0h0c0,0-0.1,0-0.2,0l-0.1,0c0,0-0.1,0-0.1,0h0
		l-0.2,0c0,0-0.1,0-0.2,0l-0.1,0c0,0-0.1,0-0.2,0.1c0,0-0.1,0-0.1,0c0,0-0.1,0-0.2,0.1l-0.4,0.2c0,0-0.2,0.1-0.2,0.1
		c0,0-0.1,0-0.1,0c-0.1,0-0.2,0.1-0.3,0.2c0,0-0.1,0-0.1,0.1l0,0c0,0-0.1,0-0.1,0c0,0,0,0-0.1,0c-0.1,0-0.2,0.1-0.2,0.1
		c0,0,0,0-0.1,0.1c0,0,0,0-0.1,0c0,0,0,0.1-0.1,0.1c-0.1,0-0.2,0.1-0.2,0.1c-0.1,0-0.1,0.1-0.2,0.2c0,0-0.1,0.1-0.2,0.1
		c0,0-0.1,0.1-0.1,0.1c0,0-0.1,0.1-0.1,0.1c0,0,0,0-0.1,0c-0.1,0-0.2,0.2-0.2,0.2c0,0-0.1,0.1-0.2,0.1c0,0-0.1,0-0.1,0.1
		C262.8,230,260.3,232.6,260.3,236.2"/>
		<path id="path15" d="M268.8,237.4c0-0.1,0.1-0.1,0.1-0.2c0.1-0.2,0.2-0.3,0.3-0.4c0,0,0.1-0.1,0.1-0.1c0.3-0.3,0.6-0.7,0.9-1
		c0,0,0-0.1,0-0.1c-0.1,0-0.1,0-0.2,0c0,0.1-0.1,0.1-0.1,0.2c0,0.1-0.2,0.2-0.2,0.2c-0.1,0.2-0.2,0.2-0.3,0.4
		c-0.1,0.1-0.2,0.2-0.3,0.4h0c0,0,0,0,0,0.1h0c0,0-0.1,0.1-0.1,0.2c0,0-0.1,0-0.1,0.1c0,0-0.1,0.1-0.1,0.1c0,0-0.1,0.1,0,0.2
		C268.7,237.4,268.8,237.4,268.8,237.4C268.8,237.4,268.8,237.4,268.8,237.4 M276.8,233.9L276.8,233.9c0,0,0.1,0,0.1,0l0,0h0h0l0,0
		h0c0,0,0.1,0,0.1,0c0,0,0,0,0,0h0l0,0c0,0,0,0,0.1,0c0,0,0.1,0,0.1,0h0c0.2,0.1,0.3,0.2,0.5,0.3c0.2,0.1,0.3,0.2,0.5,0.3
		c0,0,0,0,0,0c0.2,0.2,0.5,0.4,0.7,0.7l0,0v0c0,0,0,0,0,0c0.1,0.1,0.2,0.2,0.2,0.3c0.1,0.1,0.2,0.3,0.3,0.4c0,0.1,0.1,0.1,0.1,0.2
		c0.1,0.2,0.1,0.3,0.2,0.5v0c0,0,0,0.1,0,0.2c0,0,0,0,0,0c0.1,0.3,0.1,0.7,0.1,1c0,0.1,0,0.3,0,0.4c0,0.2,0,0.4-0.1,0.5
		c-0.1,0.2-0.1,0.4-0.2,0.5c0,0,0,0.1-0.1,0.1v0c0,0,0,0,0,0v0c0,0,0,0,0,0l0,0c0,0,0,0,0,0l0,0c0,0,0,0,0-0.1s0,0,0-0.1v0
		c0,0,0-0.1,0-0.1c0,0,0,0,0,0c0,0,0,0.1,0,0.2l0,0c0,0,0,0,0,0c0,0,0,0,0,0v0l0,0c0,0,0,0.1-0.1,0.2c0,0,0,0,0,0l0,0
		c0,0,0,0.1,0,0.1v0c0,0,0,0,0,0v0l0,0c0,0,0,0,0,0s0,0,0-0.1l0,0c0,0,0,0,0,0.1c0,0,0,0,0,0c0,0,0,0.1-0.1,0.1c0,0-0.1,0.1-0.1,0.1
		c0,0,0,0,0,0v0l0,0c0,0,0,0,0,0c0,0,0-0.1,0-0.1c0,0,0,0,0-0.1c0,0,0-0.1,0-0.2c0,0,0,0,0,0c0,0,0,0.1,0,0.1c0,0.1-0.1,0.2-0.2,0.2
		c0,0.1-0.1,0.2-0.1,0.2v0l0,0c0,0,0-0.1,0-0.1h0c0,0,0,0,0,0.1c0,0,0,0,0,0s0,0,0,0.1c0,0,0,0,0,0c0,0.1-0.1,0.2-0.2,0.2v0
		c0,0,0.1-0.1,0.1-0.2c0-0.1,0.1-0.2,0.1-0.2v0h0c0,0,0,0,0,0.1l0,0c0,0,0,0.1-0.1,0.1c0,0-0.1,0-0.1,0.1c0,0,0,0,0,0.1
		c0,0,0,0.1-0.1,0.2l0,0c0,0,0,0,0-0.1v0c0,0,0,0,0-0.1c0,0,0-0.1,0-0.2c0-0.1,0.1-0.2,0.1-0.2l0,0c0-0.1,0.1-0.2,0.2-0.2
		c0,0,0.1-0.1,0.1-0.1c0,0,0,0,0-0.1c0,0,0.1-0.1,0.1-0.1c0,0,0,0,0-0.1s0-0.1,0-0.1c0,0,0-0.1,0-0.2l0,0c0,0,0.1-0.1,0.1-0.2
		c-0.1,0-0.1,0-0.1,0.1c-0.1,0.2-0.1,0.3-0.2,0.5c-0.1,0.1-0.2,0.3-0.2,0.4c0,0-0.1,0.1-0.2,0.2c0,0-0.1,0.1-0.1,0.2
		c-0.1,0.1-0.1,0.2-0.2,0.2c0,0,0,0.1,0,0.1c-0.1,0.1-0.2,0.2-0.2,0.2h0c0,0,0-0.1,0-0.1c0,0,0,0,0,0c0,0,0,0,0,0
		c0.1-0.1,0.2-0.1,0.2-0.2c0,0,0-0.1,0-0.1c0,0,0,0,0.1,0l0,0c0,0,0-0.1,0-0.2c0,0,0-0.1,0-0.1c0,0,0,0,0.1,0l0,0c0,0,0-0.1,0-0.1
		c0.1-0.1,0.1-0.2,0.2-0.3c0.1-0.2,0.1-0.3,0.2-0.5c0,0,0-0.1,0-0.1v0h0c0,0.1-0.1,0.2-0.1,0.2c0,0,0,0,0,0.1
		c-0.1,0.1-0.1,0.2-0.2,0.4c0,0,0,0,0-0.1c0.1-0.2,0.2-0.4,0.3-0.6c0-0.1,0.1-0.2,0.1-0.4c0,0,0-0.1,0-0.1c0,0,0,0,0-0.1
		c0,0,0,0,0,0v0c0,0.1-0.1,0.2-0.2,0.2c0,0.1-0.1,0.1-0.1,0.2c0,0.1-0.1,0.1-0.1,0.2c0,0,0,0,0,0.1v0c0,0.1-0.1,0.2-0.2,0.2
		c0,0.1-0.1,0.2-0.2,0.2c0,0,0,0.1,0,0.2c0,0,0,0.1-0.1,0.1c0,0,0,0.1-0.1,0.1l0,0c0,0,0,0,0,0c0,0,0,0,0-0.1c0,0,0-0.1,0.1-0.2
		c0,0,0-0.1,0-0.1c0,0,0-0.1,0.1-0.1l0,0c0,0,0,0,0.1-0.1c0,0,0,0,0,0c0,0,0-0.1,0.1-0.1c0,0,0,0,0,0c0,0,0,0,0,0l0,0v0c0,0,0,0,0,0
		c0,0,0-0.1,0.1-0.1v0c0,0,0,0,0,0v0c0-0.1,0.1-0.1,0.1-0.2c0.1-0.2,0.2-0.3,0.2-0.5c0,0,0,0,0,0c0,0,0,0,0,0c0,0,0-0.1,0-0.2v0l0,0
		c0,0,0,0,0,0c0,0,0-0.1,0-0.1s0,0,0-0.1s0,0,0-0.1l0,0c0,0,0,0,0,0c0-0.1,0-0.2,0-0.3l0,0c0-0.2,0-0.3,0-0.5c0,0,0,0,0-0.1v0
		c0-0.3-0.2-0.6-0.4-0.8l0,0l0,0c0,0-0.1-0.1-0.1-0.1c0,0-0.1-0.1-0.2-0.1c-0.1,0-0.2-0.1-0.2-0.1c-0.1-0.1-0.2-0.1-0.4-0.2h0
		c-0.1,0-0.1,0-0.2,0c-0.1,0-0.2,0-0.3,0c0,0-0.1,0-0.2,0l0,0c-0.1,0-0.1,0-0.2,0s-0.1,0-0.2,0c-0.1,0-0.1,0-0.2,0c0,0-0.1,0-0.2,0
		c-0.1,0-0.2,0-0.2,0c-0.1,0-0.2,0-0.4,0c-0.1,0-0.2,0-0.3,0.1c-0.1,0-0.2,0-0.2,0.1c0,0-0.1,0-0.1,0c-0.1,0-0.2,0.1-0.4,0.1
		c0,0,0,0,0,0s0,0,0,0h0c0,0,0,0-0.1,0c0,0-0.1,0-0.2,0.1c0,0,0,0,0,0h0c-0.1,0-0.2,0.1-0.3,0.1c0,0,0,0-0.1,0h0
		c-0.1,0-0.2,0.1-0.3,0.2c0,0,0,0-0.1,0c-0.1,0-0.2,0.1-0.2,0.2c0,0,0,0-0.1,0c0,0-0.1,0-0.1,0.1h0h0c0,0,0,0,0,0s0,0,0,0
		c0,0,0,0,0,0c0,0,0,0,0,0s0,0,0-0.1c0,0,0,0,0,0c0,0,0,0,0,0c0,0,0,0,0,0c0,0,0,0,0-0.1v0c0,0,0,0,0,0l0,0c0,0,0,0,0,0l0,0
		c0,0-0.1,0-0.1,0.1l0,0h0c-0.1,0-0.1,0.1-0.2,0.1c0,0,0,0,0,0c0,0,0,0,0,0c0,0,0,0,0,0c0,0-0.1,0-0.1,0v0c0,0,0,0,0,0s0,0,0,0l0,0
		l0,0c0,0,0,0,0,0.1c0,0,0,0,0,0c0,0,0,0,0,0.1h0c0,0-0.1,0-0.1,0c0,0,0,0.1-0.1,0.1l0,0l0,0l0,0c0,0,0,0,0,0c0,0-0.1,0.1-0.1,0.1
		l0,0c-0.1,0.1-0.2,0.3-0.3,0.4c0,0,0,0,0,0.1c0,0.1-0.1,0.1-0.2,0.2v0c-0.2,0.1-0.1,0.3-0.2,0.4c0,0,0,0.1-0.1,0.1v0
		c0,0-0.1,0.1-0.1,0.2v-0.2c0,0,0,0-0.1,0.1c-0.1,0.2-0.1,0.4-0.2,0.5v-0.1c-0.1,0.1-0.2,0.2-0.2,0.2c-0.2,0.4-0.3,0.8-0.4,1.1h0
		c0,0,0-0.1,0-0.2c0,0,0,0.1-0.1,0.1c0,0,0-0.1,0-0.1c0,0,0,0.1-0.1,0.1v-0.2c0,0,0,0.1,0,0.2c0-0.1,0-0.2,0-0.2h0
		c0,0.1,0,0.2-0.1,0.2h0c0-0.1,0-0.2,0-0.3c-0.1,0,0,0.2-0.2,0.2c0,0-0.1,0-0.2,0c0-0.1,0-0.2,0-0.2c-0.1-0.1,0,0.1-0.1,0.2
		c0,0-0.1,0-0.2-0.1c0,0,0-0.1,0-0.2l0,0c0,0,0,0.2-0.1,0.2c0,0-0.1,0-0.1-0.1v0c0,0-0.1,0-0.1,0c0,0,0,0,0-0.1c0,0-0.1,0.1-0.1,0
		c0-0.2,0-0.3,0-0.5h0c0,0,0,0.2-0.1,0.2c0,0,0-0.1,0-0.2c0-0.2,0.1-0.3,0-0.5h0c0,0.2-0.1,0.3-0.2,0.4c0,0.1,0,0.2-0.1,0.2h0
		c0-0.2,0.1-0.4,0.1-0.5h0v0l0,0c0-0.1,0-0.1,0-0.2c0.1-0.3,0.3-0.7,0.4-1c0-0.1-0.1,0.1-0.1,0c-0.1,0.4-0.4,0.7-0.5,1.1
		c-0.1,0.2-0.2,0.5-0.2,0.7h0c0-0.1,0-0.4,0-0.5c0.1-0.6,0.3-0.9,0.5-1.5c0-0.1,0.1-0.2,0.2-0.4c-0.1,0.2-0.2,0.2-0.3,0.4
		c-0.2,0.4-0.4,0.8-0.5,1.2v0.1l-0.1,0c0-0.1,0-0.2,0.1-0.4c0.1-0.3,0.2-0.7,0.3-1c0.1-0.3,0.3-0.5,0.4-0.8c0,0,0,0.1,0,0.1
		c0,0,0.1-0.1,0.1-0.2c0.1,0,0.1-0.2,0.1-0.3c0,0,0.1-0.1,0.1-0.2c0.1-0.2,0.3-0.3,0.4-0.5c0.1-0.1,0.9-0.8,1.1-0.9c0,0,0,0,0,0
		c0,0,0,0,0.1,0c0,0,0.1,0,0.1-0.1c0,0,0.1-0.1,0.1-0.1c0.1-0.1,0.1-0.1,0.2-0.1c0,0,0.1-0.1,0.2-0.1c0.1-0.1,0.2-0.1,0.3-0.2
		c0.2,0,0.1,0,0.2-0.1c0,0,0.1,0,0.2,0c0.2-0.1,0.3-0.2,0.4-0.3c0,0,0.1,0,0.2,0c0,0,0.1,0,0.2,0c0,0,0,0,0.1,0
		c0.1,0,0.2-0.1,0.2-0.1c0.1,0,0.3-0.1,0.5-0.1c0.1,0,0.2-0.1,0.3-0.1c0.1,0,0.2,0,0.3,0c0.2,0,0.3,0,0.5,0c0.2,0,0.4,0,0.5,0
		c0.2,0,0.4,0,0.7,0c0.1,0,0.4,0,0.5,0c0.2,0,0.5,0.1,0.6,0.1c0.1,0,0.2,0,0.2,0"/>
		<path id="path16" d="M272.3,237.7c0.2-0.2,0.4-0.3,0.5-0.5c0,0,0-0.1,0-0.1c0,0-0.1,0-0.1,0C272.6,237.3,272.4,237.5,272.3,237.7
		C272.3,237.7,272.3,237.7,272.3,237.7C272.3,237.8,272.3,237.8,272.3,237.7"/>
		<path id="path17" d="M272.1,237.8C272,237.9,272,237.9,272.1,237.8c-0.1,0.1-0.1,0.1-0.1,0.2c0,0,0,0,0.1,0
		C272.1,238,272.1,238,272.1,237.8C272.2,237.9,272.1,237.9,272.1,237.8C272.1,237.8,272.1,237.8,272.1,237.8"/>
		<path id="path18" d="M271.8,238.1c-0.2,0.2-0.3,0.4-0.4,0.6c0,0,0,0,0,0.1c0,0,0,0,0.1,0C271.6,238.5,271.7,238.3,271.8,238.1
		C271.9,238.1,271.9,238.1,271.8,238.1C271.9,238,271.8,238,271.8,238.1"/>
	</g>
	<g id="small-swoosh" data-color="secondary">
		<path d="M1095.3,251.9c-6.6,3.6-12.7,7.3-19.3,10.3c-2.4,1.2-4.2,1.8-6.6,2.4c-3,1.2-5.4,1.8-8.4,2.4c-1.8,0.6-3.6,1.2-5.4,1.2
		c-7.9,1.2-14.5,3-21.8,3c-3,0-6.6,0-9.7,0c-2.4,0-4.8,0-6.6,0c-1.8,0-3.6,0-4.8-0.6l0,0l0,0l0,0c-2.4,0-4.2-0.6-6-0.6
		c-1.2,0-1.8,0-3-0.6h-0.6l0,0c-0.6,0-1.8,0-2.4-0.6c-1.2,0-1.8,0-3-0.6c-0.6,0-1.2,0-1.2-0.6c0,0,0,0-0.6,0
		c-1.2-0.6-2.4-0.6-3.6-1.2h-0.6c-1.2-0.6-3-0.6-4.2-1.2c-0.6,0-0.6,0-1.2-0.6c-0.6,0-0.6,0-1.2-0.6h-0.6c-3-1.2-6-2.4-9.1-3.6h-0.6
		c-3-1.8-6.6-2.4-9.7-4.2c-1.8-1.2-4.2-1.8-6-3c-0.6-0.6-1.2-1.2-2.4-1.8h-0.6l0,0c-0.6,0-1.2-0.6-1.8-1.2c-1.2-1.2-3-1.8-4.2-3
		c-0.6-0.6-1.2-0.6-1.8-1.2c0,0,0-0.6,0-1.2c0.6,0.6,1.2,0.6,1.2,1.2c1.2,0.6,1.8,1.2,2.4,1.2c0.6,0,0.6,0.6,1.2,0.6
		c0.6,0,0.6,0.6,0.6,0.6c0.6,0.6,1.2,0.6,1.2,1.2h0.6c0.6,0.6,1.2,1.2,1.8,1.2c0,0,0.6,0.6,0.6,0c0.6,0,0.6-0.6,0.6-0.6
		c1.2,0.6,2.4,1.2,3,1.8h0.6c0.6,0.6,1.2,1.2,2.4,1.2c0.6,0,1.2,0.6,1.2,0.6h0.6c0.6,0.6,1.2,0.6,1.8,0.6l0.6,0.6
		c0.6,0,0.6,0.6,0.6,0c0,0,0,0,0.6,0c0.6,0.6,0.6,0,1.2,0.6c-2.4-1.8-3.6-1.8-6-3.6c-1.8-1.2-3.6-1.8-4.8-3
		c-0.6-0.6-1.2-1.2-1.8-1.8c-1.2-0.6,0,0-1.2-0.6c-0.6-0.6-2.4-1.8-3-1.8c-1.2-0.6-3.6-2.4-4.2-3.6c0-0.6-2.4-2.4-2.4-2.4
		c-0.6-0.6-1.2-1.2-1.8-1.8c-0.6-0.6-1.2-1.2-1.8-1.8c0,0-1.2-1.2-1.2-1.8c-0.6-1.2-2.4-3-3.6-4.2c-1.2-1.2-1.8-3.6-3-4.8
		c-0.6-0.6-1.2-1.2-1.8-1.8c-5.4-9.1-7.3-16.9-7.3-16.9c-0.6-0.6-0.6-1.2-1.2-2.4c0.6,0,0,0.6,0.6,1.2c0-0.6-0.6-1.2-0.6-1.8
		l-0.6-1.8c-1.2-3.6-1.8-9.1-1.8-9.1c0-1.2-0.6-2.4-0.6-3.6c0-1.2,0-6.6,0-8.4c0,0,0-0.6,0.6,0l0,0c0-0.6,0-1.2,0-1.2s0.6-1.8,0-2.4
		c0-0.6,0-0.6,0-1.2c0-0.6,0-0.6,0-1.2l0,0c0,0,0,0.6-0.6,0.6c0,0.6,0,1.2,0,1.2v0.6c0,0,0,0-0.6,0v-0.6v-0.6c0,0,0-2.4,0.6-2.4V171
		c0,0,0-1.2,0-1.8c0-0.6,0-1.2,0.6-1.8l0,0c0,0.6-0.6,2.4-0.6,2.4c0,0.6,0.6,2.4,0.6,2.4c0-0.6,0-1.2,0-1.2c0-0.6,0-0.6,0-1.2
		c0.6-0.6,0.6-0.6,0.6-1.2V168c0-0.6,0-0.6,0-1.2h0.6c0-1.2,0.6-3,0.6-4.2V162c0,0,0.6,0,0.6-0.6c0-0.6,0.6-1.2,0.6-1.2l0,0
		c0-0.6,0-0.6,0.6-1.2c0,0,0-1.2,0.6-1.2c0,0,0-1.2,0-1.8c0,0,0-0.6,0-1.2c0,0,0,0,0,0.6c0,0.6-0.6,1.2-0.6,1.2
		c0,1.2-0.6,1.8-1.2,2.4v0.6c-0.6,0.6-0.6,1.2-0.6,1.8c-0.6,1.8-0.6,3-1.2,4.2l0,0c0-0.6,0-0.6,0-0.6l0.6-1.8c0-0.6,0-1.2,0.6-1.8
		c0,0,0,0,0-0.6v-0.6c0.6-2.4,1.8-4.2,2.4-6.6c0.6-1.2,0.6-2.4,1.8-3.6c35-59.8,99.1-52.6,121.4-47.1c-1.2,0.6-4.8,2.4-5.4,2.4
		c0,0-22.9-3.6-39.2,2.4c-0.6,0-0.6,0-1.2,0.6c0,0,0,0-0.6,0c-0.6,0-0.6,0-1.2,0.6c-0.6,0-0.6,0-0.6,0c-0.6,0-1.2,0.6-1.8,0.6
		c-0.6,0-0.6,0-0.6,0.6c0,0.6,1.2,0.6,1.8,0.6l0,0c1.2-0.6,1.8-1.2,3-0.6c0,0,0,0.6-0.6,0.6c-0.6,0-1.5,0.4-2.7,0.4
		c-0.6,0-0.6,0-0.6,0.6c-1.8,0.6-3,1.2-4.8,2.4h-0.6c-0.6,0.6-1.8,0.6-2.4,1.2c-0.6,0-0.6,0.6-1.2,1.2c0,0.6-0.6,0.6-1.2,0.6l0,0
		l0,0c0,0-0.6,0-0.6,0.6l0,0c1.2,0,1.8-0.6,2.4-0.6s0.6-0.6,1.2-0.6s1.2-0.6,1.8,0c0,0,0.6,0,0,0c0,0,0,0.6-0.6,0.6
		c-13.3,4.8-21.1,9.1-35.6,25.4v1.2h1.2c0,0-16.3,18.7-13.9,39.2l0.6,0.6v-1.1c0,0,0-4.2,1.8-9.1c0-0.6,0.6-0.6,0.6-0.6
		c0.6-1.8,1.2-4.2,2.4-5.4c0,0-2.4,3-1.2,12.1c1.2,9.1,0.6,0,0.6,0l0.6-0.6c0,0,0-3.6,1.8-8.4c4.8-12.1,16.9-35,38.7-46.5l-3,3
		c-8.4,4.8-21.1,20.5-23.6,24.8h1.2l0.6-1.2h1.2l-1.2,1.2c-3.6,4.2-7.3,12.7-7.3,12.7s0,0-0.6,0.6c0,0.6,0,0.6,0,1.2
		c0,0-0.6,0-0.6,0.6c0,0.6,0,0.6,0,1.2v0.6c0,0.6-0.6,1.8-0.6,2.4v0.6c0,0.6,0,1.2,0,1.8s0,0.6,0,1.2c-1.2,3.6-1.8,7.9-2.4,12.1
		c0,0,0,0,0,0.6c0,1.2,0,2.4,0,4.2c0,6,1.2,29,12.1,39.9c0.6,0.6,0.6,1.2,1.2,1.8c0.6,0.6,0.6,0.6,0.6,1.2c0,0.6,0.6,0,0.6,0
		c0.6,0.6,0.6,1.2,1.2,1.8c1.8,1.8,3,3.6,4.8,4.8c7.3,6.6,24.2,18.1,48.3,18.1c24.2,0,54.4-16.3,68.9-42.3s13.3-61.6-1.2-79.2
		c0,0-0.6,0-0.6-0.6h-0.6c0,0,0,0,0-0.6c0-0.6,0.6-0.6,0.6-0.6c2.4-1.2,4.2-1.8,6.6-2.4c1.2-0.6,3-0.6,4.2-0.6h0.6l0.6,0.6l0,0
		c0.6,0.6,0.6,1.2,1.2,1.8c0,0,0.6,0,0.6,0.6c0.6,1.2,1.8,1.8,2.4,3c0,0,0,0.6,0.6,0.6c0.6,0.6,1.2,1.2,1.8,1.2
		c-0.6-1.2-1.2-2.4-1.8-3.6v-0.6c-0.6-1.2-1.8-2.4-2.4-3.6c0,0,0-0.6-0.6-0.6c0,0,0,0,0-0.6c0.6,0,1.2-0.6,1.2-0.6
		c0.6,0,0.6,1.2,1.2,1.2v-0.6h0.6c0.6,0.6,0.6,1.8,1.2,1.8c2.4,3,3.6,6,5.4,9.7l0,0c0-1.2-1.2-2.4-1.2-3.6c-0.6-2.4-2.4-4.2-3.6-6.6
		c0-0.6-0.6-0.6-1.2-1.2c0,0-0.6,0-0.6-0.6h0.6l0,0l0,0h0.6c0,0,0,0,0,0.6h0.6c4.2,6.6,30.2,43.5,1.8,94.2l0.6,0.6
		c0,0-7.3,9.7-15.7,18.1s0.6,0.6,0.6,0.6s28.4-20,32.6-58.6c0.6-6-1.2-20-3-27.2l0.6-1.8c0,0,10.9,23.6-2.4,56.2
		C1122.4,227.8,1108.6,244.6,1095.3,251.9"/>
	</g>
	<g id="text">
		<path d="M0,278c0.5-4.6,0.9-9.2,1.5-13.7c0.3-2.4,0.9-4.9,1.7-7.2c4-12.3,12.6-18.9,26.3-19.5c5.6-0.2,11.5,0.2,16.9,1.5
		c10.8,2.5,16.3,10.3,18.5,20.7c2,9.3,2,18.7,2.1,28.1c0.1,11.4,0.1,22.8-2,34.1c-2.9,15.1-11.8,23.2-27.2,23.9
		c-5.3,0.3-10.8,0-16-1.1c-11.6-2.5-17.7-10.5-19.8-21.8c-0.8-4.2-1.1-8.5-1.6-12.8c-0.1-1-0.3-1.9-0.4-2.9C0,297.5,0,287.8,0,278z
		 M16.1,291.6c0.3,0,0.5,0,0.8,0c0,6.3-0.3,12.6,0.1,18.8c0.3,4.7,1.1,9.4,2.5,13.8c2,6.5,6.2,9.4,12.8,9.7
		c6.9,0.3,11.9-2.4,14.5-8.6c1.5-3.6,2.6-7.6,2.7-11.5c0.5-12.9,0.7-25.8,0.4-38.6c-0.1-5.3-1-10.7-2.5-15.8
		c-1.9-6.6-6.8-9.7-13.3-10c-6.7-0.3-11.4,2.8-14.1,8.8c-1,2.2-2,4.5-2.2,6.8C17.1,274,16.7,282.8,16.1,291.6z"/>
		<path d="M0,101.9c5.3,0,10.6,0,16.2,0c0,1.2,0,2.2,0,3.3c0,22.3-0.1,44.6,0.1,67c0,4.1,0.3,8.3,1.2,12.3c2.5,11,15.6,15.9,25,9.5
		c4.9-3.4,6-8.7,6.6-14.1c0.4-3.5,0.5-7.1,0.5-10.6c0-21.3,0-42.7,0-64c0-1,0-2,0-3.1c5.3,0,10.4,0,15.9,0c0,0.9,0,1.8,0,2.7
		c0,22.7,0.1,45.5-0.1,68.2c0,5.3-0.7,10.7-1.9,15.9c-2.5,10.6-9.5,16.9-20.3,18.8c-6.6,1.2-13.2,1.3-19.7,0.2
		C10.2,205.6,3.1,198,1,184.4c-0.3-2-0.7-4.1-1-6.1C0,152.8,0,127.3,0,101.9z"/>
		<path d="M688.7,346.5c-3.3-1.7-6-4-6.1-8.2c-0.1-4.2,2.7-7.9,6.6-8.7c4.1-0.8,8.3,1.5,9.7,5.4c1.5,4-0.2,8.4-3.9,10.4
		c-0.6,0.4-1.3,0.7-1.9,1C691.6,346.5,690.1,346.5,688.7,346.5z"/>
		<path d="M293.6,344.2c-6,0-11.9,0.1-17.8-0.1c-0.6,0-1.4-1.2-1.6-1.9c-3.1-14.4-6.2-28.7-9.3-43.1c-4.1-19.1-8.1-38.3-12.2-57.4
		c-0.2-0.7-0.3-1.4-0.4-2.3c5.7,0,11.2,0,17.1,0c5.1,28.7,10.2,57.5,15.3,86.3c0.1,0,0.3,0,0.4,0c1.2-5.6,2.3-11.3,3.5-16.9
		c4.6-22.6,9.3-45.1,13.9-67.7c0.2-1.2,0.5-1.9,2-1.9c5.7,0.1,11.4,0,17.4,0c5.4,28.8,10.9,57.5,16.3,86.3c0.2,0,0.3,0,0.5,0
		c5.5-28.7,10.9-57.4,16.4-86.2c5.1,0,10,0,15.2,0c-1.1,5.2-2.2,10.3-3.3,15.3c-6.4,28.8-12.9,57.7-19.2,86.5
		c-0.5,2.2-1.2,3.1-3.7,3c-5.3-0.2-10.6-0.1-16-0.1c-5.4-28.9-10.7-57.7-16.1-86.5c-0.2,0-0.3-0.1-0.5-0.1
		C305.5,286.5,299.6,315.3,293.6,344.2z"/>
		<path d="M510.2,239.4c5.1,0,9.7,0,14.5,0c0,34.8,0,69.6,0,104.7c-0.8,0.1-1.7,0.2-2.5,0.2c-6.4,0-12.9-0.1-19.3,0.1
		c-2.1,0.1-3-0.7-3.6-2.6c-9.7-28.1-19.5-56.1-29.3-84.2c-0.2-0.6-0.4-1.2-1.1-1.8c0,29.4,0,58.8,0,88.4c-4.8,0-9.2,0-13.7,0
		c0-34.9,0-69.6,0-104.6c7.9,0,15.7,0,23.7,0c10.3,29.5,20.6,59,30.9,88.6c0.2,0,0.4-0.1,0.6-0.1
		C510.2,298.5,510.2,269.1,510.2,239.4z"/>
		<path d="M86.7,101.8c7.6,0,15-0.1,22.4,0.1c0.6,0,1.6,1.2,1.9,2.1c6.5,18.6,13,37.2,19.5,55.9c3.4,9.9,6.9,19.8,10.3,29.7
		c0.2,0.4,0.4,0.9,0.9,1.2c0-29.5,0-59,0-88.8c4.9,0,9.5,0,14.4,0c0,34.7,0,69.5,0,104.6c-5.5,0-10.9,0-16.3,0
		c-2.7,0-6.1,0.8-7.9-0.5c-1.8-1.2-2-4.7-2.9-7.2c-9.2-26.4-18.4-52.8-27.6-79.2c-0.2-0.6-0.4-1.2-1.1-1.8c0,29.5,0,58.9,0,88.6
		c-4.7,0-9,0-13.6,0C86.7,171.7,86.7,137,86.7,101.8z"/>
		<path d="M411.3,153.7c10.1,1.8,13.7,6.4,14.4,17.7c0.6,9.4,1,18.8,1.5,28.2c0.1,2.2,0.5,4.4,0.8,6.8c-5.5,0-11,0-17,0
		c-0.4-8.1-0.7-16.1-1.2-24.2c-0.3-4.6-0.6-9.2-1.4-13.8c-0.9-5.2-3.4-7.5-8.7-8c-5.2-0.5-10.4-0.5-15.9-0.8c0,15.8,0,31.2,0,46.8
		c-5.5,0-10.8,0-16.2,0c0-34.8,0-69.6,0-104.6c2.8,0,5.5,0,8.2,0c10.3,0.2,20.7-0.1,31,0.6c12.4,0.9,19.2,8.1,20.5,20.5
		c0.6,5.4,0.4,10.7-1.1,16c-1.9,6.7-6.1,11.4-12.7,13.9C412.9,153,412.4,153.3,411.3,153.7z M383.8,113.8c0,11.6,0,22.6,0,34.1
		c5.5-0.3,10.9-0.3,16.2-0.9c5.2-0.6,9.2-3.5,10.1-8.8c0.7-4.4,0.9-9,0.5-13.5c-0.5-5.1-3.7-8.9-8.9-9.7
		C395.8,114.1,389.9,114.1,383.8,113.8z"/>
		<path d="M505.6,129.7c-5.7,0-10.9,0-16.3,0c-0.2-2.1-0.2-4.1-0.5-6.1c-1.1-8.1-5.7-12-13.6-11.6c-7.8,0.4-12.4,5-12.8,13
		c-0.3,6.2,2.2,11.1,7.3,14.6c5.1,3.4,10.3,6.7,15.4,10c3,2,5.9,4,8.8,6c10.2,6.7,13.4,16.5,12.3,28.1c-0.3,2.7-0.7,5.4-1.5,8
		c-2.8,9-9.4,13.9-18.4,15.8c-7.7,1.7-15.5,1.6-23.1-0.1c-10.9-2.3-16.9-9.3-18.3-20.9c-0.4-3.3-0.5-6.7-0.7-10.2
		c5.8,0,11.1,0,16.6,0c0.3,3.1,0.4,6.2,1,9.1c1.4,8,6.4,11.7,14.9,11.1c8.1-0.5,12.3-4.7,13-12.7c0.7-7.5-2.2-13.2-8.4-17.3
		c-5.8-3.8-11.9-7.2-17.5-11.2c-4.2-3-8.5-6.2-11.9-10c-7.5-8.6-8.2-24.4-2-34c3.2-4.9,7.8-8,13.4-9.7c8.4-2.5,17-2.6,25.4-0.3
		c9.6,2.6,14.8,9.2,16.1,18.9C505.4,123.3,505.4,126.3,505.6,129.7z"/>
		<path d="M348.1,102c0,4.1,0,8,0,12.2c-11.8,0-23.6,0-35.5,0c0,10.7,0,21.2,0,32c11,0,22.1,0,33.2,0c0,4.2,0,8.1,0,12.2
		c-11.1,0-22.1,0-33.2,0c0,12,0,23.7,0,35.7c12.2,0,24.3,0,36.5,0c0,4.3,0,8.3,0,12.4c-17.6,0-35,0-52.7,0c0-34.8,0-69.6,0-104.5
		C313.5,102,330.6,102,348.1,102z"/>
		<path d="M267.5,101.9c5.4,0,10.5,0,15.8,0c-1.6,6-3.1,11.9-4.6,17.8c-7.4,28.2-14.9,56.3-22.3,84.5c-0.5,1.8-1.1,2.6-3.1,2.5
		c-5-0.2-9.9-0.1-14.9,0c-1.4,0-2-0.4-2.4-1.8c-8.5-33.8-17-67.5-25.6-101.3c-0.1-0.5-0.1-1-0.2-1.6c5.6,0,11.1,0,16.7,0
		c6.5,29.6,13.1,59.2,19.6,88.8c0.1,0,0.3,0,0.4,0.1C253.9,161.2,260.7,131.7,267.5,101.9z"/>
		<path d="M631.9,331.7c12.3,0,24.3,0,36.5,0c0,4.2,0,8.2,0,12.4c-17.5,0-35,0-52.6,0c0-34.8,0-69.6,0-104.6c17.1,0,34.3,0,51.6,0
		c0,4,0,8,0,12.3c-11.8,0-23.5,0-35.4,0c0,10.8,0,21.3,0,32c11,0,22,0,33.1,0c0,4.1,0,7.9,0,12.1c-11,0-22,0-33.2,0
		C631.9,307.9,631.9,319.6,631.9,331.7z"/>
		<path d="M383.5,344.1c0-34.9,0-69.6,0-104.6c17.2,0,34.3,0,51.6,0c0,4.1,0,8.1,0,12.3c-11.8,0-23.5,0-35.4,0c0,10.7,0,21.3,0,32
		c11,0,22,0,33.1,0c0,4.1,0,7.9,0,12.1c-11,0-22,0-33.2,0c0,12,0,23.7,0,35.7c12.1,0,24.2,0,36.5,0c0,4.3,0,8.3,0,12.5
		C418.6,344.1,401.1,344.1,383.5,344.1z"/>
		<path d="M660.7,151.6c0.5-1.2,0.8-2,1.1-2.9c5.7-14.9,11.5-29.7,17.2-44.6c0.7-1.7,1.4-2.5,3.3-2.4c4.6,0.2,9.2,0.1,14.2,0.1
		c-0.4,1.1-0.8,2-1.2,2.8c-8.9,20-17.9,39.9-26.7,59.9c-0.6,1.3-0.9,2.8-0.9,4.3c-0.1,11.6,0,23.1,0,34.7c0,0.9,0,1.8,0,2.9
		c-5.5,0-10.8,0-16.3,0c0-0.9,0-1.8,0-2.7c0-11.7,0-23.3,0-35c0-1.4-0.3-2.8-0.8-4c-8.5-20.1-17-40.1-25.5-60.2
		c-0.3-0.7-0.6-1.5-1-2.5c0.8-0.1,1.4-0.2,2-0.2c4.5,0,8.9,0.1,13.4-0.1c2.1-0.1,2.8,0.7,3.5,2.5c5.6,15,11.2,30,16.9,45
		C660,149.9,660.3,150.5,660.7,151.6z"/>
		<path d="M103.8,344.1c-5.5,0-10.6,0-16,0c0-34.9,0-69.6,0-104.6c16.1,0,32.2,0,48.5,0c0,4,0,8,0,12.2c-10.8,0-21.5,0-32.4,0
		c0,10.8,0,21.4,0,32.2c10.2,0,20.4,0,30.7,0c0,4.1,0,8,0,12.2c-10.2,0-20.4,0-30.8,0C103.8,312.3,103.8,328.1,103.8,344.1z"/>
		<path d="M220.3,251.8c0,31,0,61.6,0,92.3c-5.5,0-10.7,0-16.3,0c0-30.7,0-61.3,0-92.2c-8.2,0-16.1,0-24.1,0c0-4.3,0-8.3,0-12.4
		c21.5,0,42.8,0,64.4,0c0,4,0,8,0,12.3C236.5,251.8,228.5,251.8,220.3,251.8z"/>
		<path d="M620.6,102c0,4.1,0,8.1,0,12.3c-8,0-15.9,0-24.1,0c0,30.9,0,61.5,0,92.2c-5.5,0-10.8,0-16.3,0c0-30.6,0-61.2,0-92
		c-8.1,0-16,0-24,0c0-4.3,0-8.3,0-12.5C577.7,102,599,102,620.6,102z"/>
		<path d="M602.3,239.5c0,4.1,0,8.1,0,12.3c-8,0-15.9,0-24.1,0c0,30.9,0,61.5,0,92.3c-5.6,0-10.8,0-16.3,0c0-30.7,0-61.3,0-92.2
		c-8.1,0-16,0-24,0c0-4.3,0-8.3,0-12.5C559.3,239.5,580.7,239.5,602.3,239.5z"/>
		<path d="M784.1,102.4c0.5-0.2,0.6-0.2,0.7-0.3c7.5-0.8,7.5-0.8,7.5,6.7c0,77,0,154,0,230.9c0,0.9,0.2,1.9-0.1,2.7
		c-1,3.1-3.6,1-5.5,1.5c-1,0.2-2.7,0.5-2.7-1.5c0-0.6,0-1.2,0-1.7c0-78.5,0-156.9,0-235.4C784.1,104.3,784.1,103.4,784.1,102.4z"/>
		<path d="M196.8,206.5c-5.4,0-10.7,0-16,0c0-34.9,0-69.6,0-104.5c5.4,0,10.6,0,16,0C196.8,136.8,196.8,171.5,196.8,206.5z"/>
		<path d="M526.5,102c5.4,0,10.6,0,16,0c0,34.9,0,69.6,0,104.5c-5.4,0-10.6,0-16,0C526.5,171.7,526.5,137,526.5,102z"/>
	</g>
</svg>
