<?xml version="1.0" encoding="UTF-8"?>
<svg version="1.1" id="ITC-Logo"
	xmlns:svg="http://www.w3.org/2000/svg"
	xmlns="http://www.w3.org/2000/svg" width="100%"
	xmlns:xlink="http://www.w3.org/1999/xlink" viewBox="0 0 1024 1024">
	<style type="text/css">
	</style>
	<g id="itc" class="foreground" data-color="foreground" transform="matrix(14.745224,0,0,14.745224,-2960.9411,-3348.0204)">
		<rect id="rect12" x="231.1" y="282.6" width="4.6" height="7.1"/>
		<polygon id="polygon13" points="245.6,289.7 241,289.7 241,284.9 238.4,284.9 238.4,282.6 248.2,282.6 248.2,284.9 
		245.6,284.9 	"/>
		<path id="path13" d="M259.5,285.5c-0.7-0.4-1.7-0.7-2.7-0.7c-1.4,0-2.5,0.6-2.5,1.4s1.2,1.4,2.6,1.4
		c1.1,0,1.9-0.3,2.7-0.7l-0.1,2.7c-0.7,0.2-2.5,0.3-3.3,0.3c-3.6,0-6.5-1.6-6.5-3.6c0-2.1,2.9-3.7,6.7-3.7c1.1,0,2.1,0.1,3.1,0.3
		L259.5,285.5z"/>
	</g>
	<g id="big-swoosh" class="primary" data-color="primary" transform="matrix(14.745224,0,0,14.745224,-2960.9411,-3348.0204)">
		<path id="path14" d="M218,243.3c-0.1,0.1-0.2,0.2-0.2,0.4c0,0-0.1,0-0.1,0.1s-0.1,0.2-0.1,0.3s-0.1,0.1-0.1,0.1
		c-0.1,0.1-0.2,0.3-0.2,0.4c-0.1,0.1-0.1,0-0.1,0.2c-0.1,0.1-0.2,0.3-0.3,0.4c-0.1,0.2-0.1,0.3-0.3,0.4l0,0
		c-0.1,0.1-0.1,0.2-0.1,0.3l-0.1,0.1v0.1c-0.1,0.1-0.1,0.2-0.2,0.3c0,0.1-0.1,0.2-0.1,0.3s-0.1,0.1-0.1,0.2v0.1
		c0,0.1-0.2,0.2-0.2,0.3s-0.2,0.4-0.1,0.5c-0.1,0.1-0.4,0.2-0.3,0.4v0.1c0,0-0.1,0-0.1,0.1c-0.1,0.1-0.2,0.2-0.2,0.3c0,0,0,0,0,0.1
		H215c0,0.1,0.1,0.3,0.1,0.5v0.1c0,0.1-0.1,0.1-0.1,0.2v0.1c-0.1,0.2-0.1,0.4-0.2,0.6c0,0.1-0.2,0.2-0.2,0.3c0,0,0,0,0,0.1
		c0,0-0.1,0-0.1,0.1s0.1,0.2,0.1,0.3c0,0-0.1,0-0.1,0.1s0,0.2-0.1,0.3s-0.1,0.2-0.2,0.3c0.1,0.1,0,0.3,0,0.4c0,0.1,0.1,0.2,0.1,0.3
		c0,0,0,0-0.1,0v0.1v0.1c-0.1,0.2,0,0.4,0,0.6c0,0,0,0-0.1,0.1c0,0.1,0,0.3,0,0.4c0,0.1-0.1,0.3-0.1,0.4c0,0,0,0-0.1,0
		c-0.1,0.2,0.1,0.4,0,0.6v0.1c0,0.1-0.1,0.2-0.1,0.3s0,0.3,0,0.4c0,0.2,0.1,0.3,0.1,0.5l0,0c0,0.1,0,0.2,0,0.3
		c0,0.3,0.1,0.5,0.1,0.8v0.1c0,0.2,0.1,0.5,0.1,0.7l0,0c0,0.1,0.1,0.2,0,0.3c-0.1,0,0-0.1-0.1-0.1c0-0.1,0-0.1,0-0.2h-0.1
		c0-0.1,0-0.1,0-0.2c0-0.2,0-0.4,0-0.6c0-0.1,0-0.2,0-0.3l0,0v-0.1c0.1-0.1-0.1-0.1-0.1-0.2h0.1c0-0.1,0-0.1,0-0.2
		c0,0,0-0.1,0.1-0.1v-0.1c0-0.2-0.2-0.3-0.2-0.5c0-0.1,0.1-0.1,0.1-0.1c0-0.1,0-0.2,0-0.3c0,0,0,0,0-0.1v-0.1c0-0.2-0.1-0.3,0-0.5
		c0.1-0.1-0.1-0.3,0-0.5c0,0,0-0.1,0-0.2c0-0.1,0-0.2,0-0.3s0.1-0.2,0.1-0.3c0,0,0-0.1,0-0.2l0.1-0.1c0,0-0.1-0.2-0.1-0.3
		s0-0.1,0-0.2l0.1-0.1v-0.1c0-0.1,0-0.3,0-0.4c0-0.1,0-0.1,0-0.2c0,0,0,0,0.1-0.1c0-0.2,0.1-0.3,0.1-0.4c0,0,0.1,0,0.1-0.1
		s0.1-0.2,0.1-0.3c0-0.2,0.1-0.3,0.2-0.5c0.1-0.2,0.1-0.3,0.1-0.4c0-0.1,0-0.1,0-0.2l-0.1-0.1v-0.1c0.1-0.1,0.1-0.2,0.1-0.2
		c0.1,0,0.1,0,0.2-0.1c0.1-0.2,0-0.3,0.1-0.6l0.2-0.2c0-0.1,0-0.2,0.1-0.2c0-0.1,0.1-0.3,0.1-0.4c0.1-0.1,0.1-0.1,0.1-0.2
		c0-0.1,0.3-0.4,0.4-0.5V247c-0.1-0.1,0-0.3,0.1-0.4c0,0,0.1-0.2,0.2-0.2c0-0.1,0-0.1,0.1-0.1c0,0,0.1-0.2,0.1-0.3h0.1
		c0-0.1,0.1-0.2,0.1-0.3s0.1-0.2,0.2-0.2c0,0,0,0,0-0.1c0,0,0,0,0.1,0c0-0.1,0.1-0.1,0.1-0.2v-0.1c0.1,0,0,0.1,0,0.1
		c0-0.1-0.1-0.2,0-0.3s0.1,0.1,0.1,0c0.1-0.2,0.2-0.3,0.3-0.5c0,0,0-0.1,0.1,0c0,0,0,0,0-0.1c0.1,0,0.1-0.1,0.1-0.2l0.1-0.1v-0.1
		l0.1-0.1c0,0,0,0,0-0.1c0.1,0,0.1-0.1,0.1-0.2c0.1-0.2,0.2-0.3,0.3-0.4c0.1-0.1,0.1-0.2,0.1-0.3c0,0,0.1,0,0.1-0.1s0.1-0.2,0.2-0.2
		c0.1,0,0,0.1,0,0.1c-0.1,0.1-0.1,0.1-0.1,0.2c0,0,0,0-0.1,0C218.1,243.1,218,243.2,218,243.3L218,243.3 M214.2,246.9L214.2,246.9
		C214.2,246.9,214.3,246.9,214.2,246.9c0.1,0.2,0,0.2-0.1,0.2C214.1,247,214.1,246.9,214.2,246.9 M213.4,248
		c-0.1,0.2-0.1,0.4-0.2,0.6v0.1c-0.1,0.1-0.1,0.2-0.1,0.3s-0.1,0.2-0.1,0.3s-0.1,0.2-0.1,0.3s0,0.1-0.1,0.2v0.1c0,0,0,0-0.1,0.1v0.1
		c0,0-0.1,0-0.1,0.1l0,0c0-0.2,0.1-0.3,0.1-0.5c0,0,0.1,0,0-0.1c0-0.1,0.1-0.1,0.1-0.2c0-0.1,0-0.1,0.1-0.2l0,0c0-0.1,0-0.2,0.1-0.2
		c0,0,0-0.1-0.1-0.1l0,0c0-0.1,0-0.1,0-0.2v-0.1c0-0.1,0.1-0.3,0.2-0.4v-0.1c0-0.1,0.1-0.2,0.1-0.3v-0.1l0,0v0.1
		C213.4,247.9,213.4,247.9,213.4,248 M212.6,250.4L212.6,250.4c0,0.1,0,0.2,0,0.2s0,0.1-0.1,0.1c-0.1,0.2-0.1,0.5-0.2,0.7l0,0
		c0-0.1,0-0.1,0-0.2v-0.1V251c0-0.1,0.1-0.1,0.1-0.2c0-0.1,0.1-0.1,0.1-0.2C212.5,250.5,212.5,250.5,212.6,250.4
		C212.5,250.3,212.6,250.3,212.6,250.4C212.6,250.3,212.6,250.3,212.6,250.4 M214.4,245.9c0,0,0,0,0.1,0l0,0v-0.1
		C214.6,245.9,214.5,245.9,214.4,245.9c0.1-0.1,0.1-0.2,0.2-0.2l0,0c0,0,0-0.1-0.1-0.1l0,0c0.1,0,0.1,0,0.1,0c0-0.1,0-0.1,0-0.2
		c0-0.1,0-0.1,0-0.2c0-0.1,0.1,0,0.1,0l0,0c0,0,0,0,0-0.1s-0.1,0-0.1-0.1s0.1-0.1,0.1-0.1s0.1,0.1,0.1,0s0.1-0.2,0.2-0.2
		c0.1,0,0,0.1,0,0.2c0,0-0.1,0-0.1,0.1s0,0.1-0.1,0.2c0,0.1-0.1,0.2-0.1,0.2v0.1l-0.1,0.1c-0.1,0.2-0.1,0.3-0.2,0.5v0.1l0,0
		c0,0.1-0.1,0.2-0.1,0.3c-0.1,0.1-0.1,0.3-0.2,0.4c0,0-0.1,0-0.1-0.1h0.1c0-0.1,0-0.1,0.1-0.2c0-0.1,0-0.1,0-0.2l0.1-0.1
		c0-0.1,0.1-0.2,0-0.3C214.5,246.1,214.4,246.1,214.4,245.9C214.4,246,214.4,246,214.4,245.9 M215.5,243.8c0.1,0,0.1-0.1,0.2-0.2
		c0-0.1,0.1-0.1,0.2-0.2v-0.1l0.1-0.1v-0.1c0,0,0.1,0,0.1-0.1s0-0.2,0-0.2c0.1,0,0.2-0.1,0.2-0.1s0,0,0.1,0s0-0.1,0.1-0.2
		c0,0,0-0.1,0.1-0.1v-0.1c0.1-0.1,0.1-0.2,0.1-0.3l0,0c0.1,0,0.1,0.1,0.2,0c0.1,0,0-0.1,0.1-0.2c0-0.1,0.1-0.1,0.2-0.2
		c0.1,0,0.1-0.1,0.1-0.2c0,0,0.1,0,0.1-0.1v-0.1c0-0.1,0.1-0.1,0.2-0.1c0-0.1,0.1-0.1,0.1-0.1s0,0,0-0.1s0.1-0.2,0.2-0.2l0,0
		c0,0,0.1,0.1,0,0.1c0,0.1-0.1,0-0.1,0s0,0,0,0.1c0,0,0.1,0,0.1,0.1c-0.1,0.1-0.2,0.1-0.2,0.2c0,0.1-0.1,0.1-0.2,0.2
		c0,0,0,0.1-0.1,0.1l-0.1,0.1c-0.1,0.1-0.1,0.1-0.1,0.2c0,0,0,0.1-0.1,0.1c0,0,0,0,0,0.1c0,0-0.1,0-0.1,0.1s-0.1,0.1-0.1,0.2
		c-0.1,0.1-0.2,0.2-0.3,0.4c0,0.1-0.1,0.1-0.1,0.2c0,0.1-0.1,0.1-0.2,0.2c0,0.1-0.1,0.2-0.2,0.3c0,0.1-0.1,0.1-0.2,0.1
		c-0.1,0.1-0.1,0.3-0.2,0.4v0.1h-0.1l0,0C215.6,244,215.5,244,215.5,243.8L215.5,243.8C215.6,243.9,215.5,243.9,215.5,243.8
		L215.5,243.8 M218.2,240.5c0.1-0.2,0.3-0.3,0.4-0.5c0,0-0.1,0-0.1-0.1s0-0.2,0.1-0.2l0,0c0,0-0.1,0-0.1,0.1c0,0,0.1,0.1,0.1,0
		s0.1-0.1,0.1-0.1l0.1-0.1h-0.1h0.1v-0.1c0.1-0.1,0.1,0,0.2,0c0.1-0.1,0.2-0.2,0.3-0.3c0,0,0-0.1-0.1-0.1c0.1,0,0.1-0.1,0.1-0.1h0.1
		c0.1,0,0.1-0.1,0.1-0.1c0-0.1,0.1-0.1,0.1-0.2l0,0c0,0,0.1-0.1,0.1,0s-0.1,0.1-0.1,0.2v0.1c-0.1,0.1-0.2,0.3-0.4,0.3
		c0,0-0.1,0-0.1,0.1s-0.1,0.1-0.2,0.1l0,0c0,0.1-0.1,0.1-0.1,0.2c0,0.1-0.1,0.1-0.1,0.2c0,0,0.1,0.1,0,0.1c0,0.1-0.1,0.1-0.2,0.2
		c0,0,0,0-0.1,0s-0.1,0.1-0.1,0.2C218.3,240.4,218.2,240.4,218.2,240.5c0,0,0,0-0.1,0C218.4,240.5,218.3,240.6,218.2,240.5
		C218.1,240.6,218.2,240.5,218.2,240.5 M212,258.2C212,258.2,212,258.1,212,258.2c0-0.1,0-0.1,0-0.1c0-0.1,0-0.2,0-0.2
		c0-0.1-0.1-0.2,0-0.2v-0.1c0-0.1,0-0.2,0-0.2c0-0.1,0-0.2,0-0.4c0,0,0-0.1,0-0.2v-0.1v-0.1c0,0,0,0,0-0.1l0,0c0-0.1,0-0.2,0-0.3
		v-0.1c0-0.1,0-0.2,0-0.2v-0.1c0-0.1-0.1-0.3,0-0.4c-0.1,0,0-0.1,0-0.1s0-0.1,0-0.2V255l0,0c0-0.1,0-0.2,0-0.2v-0.1c0,0,0,0,0-0.1
		l0,0l0,0v-0.1l0,0c0,0.1,0,0.2,0,0.2c0,0.1,0,0.3,0,0.4v0.1c0,0.1,0,0.2,0,0.3v0.1c0,0.1,0,0.1,0,0.2c0,0.1,0,0.1,0,0.2
		s0,0.2,0,0.3v0.1c0,0.1,0,0.2,0,0.4c0,0.1,0,0.2,0,0.3c0,0.1,0,0.2,0,0.4l0,0c0,0.1,0,0.2,0,0.2s0,0,0,0.1
		C212,257.8,212,258,212,258.2L212,258.2 M232.2,232.8L232.2,232.8L232.2,232.8C232.1,232.8,232.2,232.8,232.2,232.8 M240.2,234.9
		c0.2,0,0.3,0,0.5,0c0.1,0,0.1,0,0.1,0.1c0,0,0,0,0,0.1h-0.1c-0.1,0-0.2,0-0.2,0s0,0-0.1,0C240.3,235,240.2,235,240.2,234.9
		C240.1,234.9,240.1,234.9,240.2,234.9 M211.3,255.1L211.3,255.1c0,0.1,0,0.1,0,0.1c-0.4,2.9,2.1,13.6,11.3,18.1l0,0
		c0.1,0.1,0.2,0.1,0.2,0.1c0.2,0.1,0.4,0.3,0.7,0.4c0.1,0.1,0.3,0.1,0.4,0.2c0.1,0.1,0.2,0.1,0.3,0.2c0.5,0.3,1,0.6,1.4,0.9
		c0.4,0.2,0.7,0.4,1.1,0.6c-0.4-0.3-0.6-0.3-1-0.6c-0.3-0.2-0.6-0.3-0.8-0.5c-0.1-0.1-0.2-0.2-0.3-0.3c-0.2-0.1,0,0-0.2-0.1
		c-0.1-0.1-0.4-0.3-0.5-0.3c-0.2-0.1-0.6-0.4-0.7-0.6c0-0.1-0.4-0.3-0.4-0.4c-0.1-0.1-0.2-0.2-0.3-0.3c-0.1-0.1-0.2-0.2-0.3-0.3
		c0,0-0.2-0.2-0.2-0.3c-0.1-0.2-0.4-0.5-0.6-0.7c-0.2-0.2-0.3-0.6-0.5-0.8c-0.1-0.1-0.2-0.2-0.3-0.3c-0.2-0.4-0.4-0.8-0.6-1.2
		c-0.2-0.4-0.2-0.6-0.5-1.1l-0.2-0.3c-4.9-7.4-2.2-17.1,1.7-22c6-7.5,16.6-8.9,22.3-9.1c-0.2-0.1-0.3-0.3-0.5-0.4
		c-0.1-0.1-0.2-0.2-0.4-0.2h-0.1c-0.1,0-0.1,0-0.2,0c-0.1,0-0.1-0.1-0.1-0.1c-0.1,0-0.2,0-0.3,0s0,0.3-0.1,0.2
		c-0.1,0-0.2-0.1-0.3-0.1s-0.1-0.1,0-0.2c-0.2-0.1-0.3,0-0.5,0c-0.1,0-0.3,0-0.4,0h-0.1c0,0-0.4,0-0.5,0l-0.1-0.2c0.1,0,0.4,0,0.5,0
		s0.2,0,0.3,0c0,0,0.1,0,0.2,0c0.1,0,0.2-0.1,0.2-0.1h0.1c-0.2-0.2-0.5-0.4-0.8-0.6c-0.1,0-0.5-0.2-0.6-0.2c0,0-0.4,0-0.6-0.1
		c-0.1,0-0.2-0.1-0.2-0.1c0.1,0,0.4,0.1,0.4,0.1c0.1,0,0.2,0,0.3,0l0,0c-0.1,0-0.1-0.1-0.2-0.1h-0.1c-0.2-0.1-0.3-0.2-0.4-0.3
		c-0.3-0.2-0.7-0.3-1-0.4c-0.3-0.1-1.3-0.5-1.7-0.6c-0.3-0.1-0.5,0-0.8,0c-0.6,0.1-1.8,0.3-2.3,0.3c0.2,0,0.6-0.2,0.9-0.3
		c-0.1,0-0.4,0-0.4,0c-0.3,0-0.6,0-0.9,0c-0.5,0-1.8,0.2-1.8,0.2c-0.1,0-0.4,0.1-0.4,0.1l0,0c0.2,0.1,0.4-0.1,0.6,0
		c0,0,0,0.1-0.1,0.1c-0.4,0.1-1.9,0.4-2,0.4l0,0c0,0.1-0.4,0.2-0.4,0.2c0-0.1-0.3,0-0.3,0h-0.1c0,0-0.5,0.2-0.7,0.3
		s-0.4,0.2-0.6,0.2c0,0,0,0-0.1,0c-0.1,0.1-0.1,0.1-0.2,0.1c-0.1,0-0.1,0-0.2,0l-0.1,0.1c-0.2,0.1-0.4,0.2-0.5,0.2
		c-0.4,0.2-1.6,0.7-1.8,0.8c-0.1,0-0.1,0.1-0.2,0.1h-0.1l-0.3,0.1c-0.1,0-0.5,0.3-0.6,0.3c0,0-0.2,0.1-0.3,0.1l-0.2,0.2
		c0.1,0,0.2,0,0.2,0c-0.1,0.1-0.3,0.2-0.5,0.3c0,0-0.3-0.1-0.2-0.1s0.2-0.1,0.3-0.1v-0.1c0.1-0.1,0.3-0.2,0.4-0.2
		c0,0,0.1-0.1,0.2-0.1c0.1-0.1,0.2-0.2,0.3-0.2s0.4-0.2,0.4-0.2c0.1,0,0.2-0.1,0.3-0.1l0,0c0.1,0,0.1,0,0.2,0c0.1,0,0.1-0.1,0.2-0.2
		c0.1,0,1.3-0.5,1.3-0.5c0.1,0,0.2-0.1,0.3-0.1l0.1-0.1c0.1,0,0.1,0,0.1,0c0.1,0,0.1-0.1,0.2-0.1c0.1,0,0.1,0,0.2,0h0.1v-0.1h0.1
		l0,0c0.1,0,0.1,0,0.2,0c0.1,0,0.1-0.1,0-0.1c0.1,0,0.1-0.1,0.2-0.1c0,0,0.2,0,0.3,0c0,0,0.1,0,0.1-0.1s-0.1,0-0.1,0H227
		c0,0,0.1,0,0.1-0.1c0,0,0.1,0,0.2,0c0,0,0.3-0.1,0.5-0.1c0.1,0,0.1-0.1,0.1-0.1c0.1,0,0.1-0.1,0.2-0.1h0.2h0.1
		c0.1,0,0.1,0.1,0.2,0.1c0,0,0.2-0.1,0.3-0.2h0.1l-0.1-0.1c-0.1,0.1-0.3,0.1-0.5,0.1c0,0-0.1,0-0.1,0.1c0,0,0-0.1-0.1-0.1h-0.1
		c-0.1,0.1-0.2,0.1-0.4,0.1l-0.3,0.1c-0.1,0-0.2,0-0.3,0.1H227l-0.4,0.1c-0.1,0-0.2,0.1-0.4,0.1l-0.2,0.1c-0.1,0-0.2,0.1-0.4,0.2
		c0,0-0.2,0-0.2,0.1c-0.1,0-0.2,0.1-0.4,0.2l-0.9,0.4c0,0-0.6,0.2-0.6,0.3c-0.1,0-0.2,0-0.2,0.1c-0.3,0.1-0.5,0.3-0.8,0.4
		c-0.1,0-0.2,0.1-0.3,0.2l-0.1,0.1c-0.1,0-0.2,0-0.2,0c-0.1,0-0.1,0.1-0.2,0.1c-0.2,0.1-0.5,0.3-0.5,0.3c-0.1,0.1-0.1,0.1-0.2,0.2
		c-0.1,0-0.1,0-0.2,0.1c-0.1,0.1-0.1,0.2-0.2,0.2c-0.2,0-0.4,0.2-0.4,0.2c-0.2,0.1-0.3,0.3-0.5,0.4c0,0-0.3,0.2-0.4,0.3
		c0,0-0.2,0.2-0.3,0.2s-0.2,0.2-0.3,0.3c-0.1,0-0.1,0-0.2,0.1c-0.2,0.1-0.6,0.5-0.6,0.5c-0.1,0.1-0.3,0.2-0.4,0.3
		c-0.1,0.1-0.2,0.1-0.2,0.2C217.3,240,211.1,246.3,211.3,255.1"/>
		<path id="path15" d="M232,258c0-0.2,0.2-0.3,0.3-0.5c0.2-0.4,0.4-0.7,0.7-1c0.1-0.1,0.2-0.2,0.3-0.3
		c0.8-0.8,1.5-1.6,2.3-2.4c0.1,0,0.1-0.2,0-0.3c-0.2-0.1-0.3,0-0.4,0.1c-0.1,0.2-0.3,0.2-0.3,0.4c-0.1,0.2-0.4,0.4-0.6,0.6
		c-0.2,0.4-0.5,0.6-0.8,0.9c-0.3,0.3-0.6,0.4-0.7,0.9h-0.1c0,0.1-0.1,0.1-0.1,0.2h-0.1c-0.1,0.1-0.2,0.3-0.3,0.4s-0.2,0.1-0.2,0.2
		c-0.1,0.1-0.2,0.2-0.3,0.3c-0.1,0.1-0.2,0.3-0.1,0.4C231.8,258.1,231.9,258.1,232,258C232,258.1,232,258.1,232,258 M251.4,249.5
		L251.4,249.5c0.1,0,0.2,0.1,0.3,0.1l0,0h0.1h0.1l0,0h0.1c0.1,0,0.2,0.1,0.3,0.1c0,0,0.1,0,0.1,0.1h0.1l0,0c0.1,0,0.1,0,0.2,0.1
		c0.1,0.1,0.2,0,0.3,0.1h0.1c0.4,0.2,0.8,0.4,1.2,0.7c0.4,0.2,0.7,0.5,1.1,0.8c0,0,0,0,0.1,0.1c0.6,0.5,1.2,1,1.7,1.6l0.1,0.1v0.1
		c0,0,0,0,0.1,0c0.2,0.2,0.4,0.5,0.5,0.7c0.3,0.3,0.5,0.7,0.7,1c0.1,0.2,0.2,0.3,0.2,0.5c0.2,0.4,0.3,0.8,0.5,1.3v0.1
		c0,0.1,0.1,0.2,0.1,0.4c0,0,0,0.1,0.1,0.1c0.2,0.8,0.3,1.6,0.3,2.5c0,0.3,0,0.7-0.1,1c-0.1,0.4-0.1,0.9-0.3,1.3
		c-0.2,0.5-0.3,0.9-0.5,1.3c-0.1,0.1-0.1,0.2-0.2,0.3v0.1c0,0,0,0.1-0.1,0v-0.1c0,0,0-0.1,0.1-0.1l0,0c0-0.1,0-0.1,0-0.1l0,0
		c0-0.1,0.1-0.1,0.1-0.2s0-0.1,0-0.2v-0.1c0-0.1,0.1-0.2,0.1-0.3c0,0,0-0.1-0.1-0.1c0,0.1-0.1,0.2-0.1,0.4l0,0c0,0,0,0,0,0.1
		c0,0,0,0.1-0.1,0.1v0.1l0,0c0,0.1-0.1,0.3-0.2,0.4c0,0,0,0,0,0.1l0,0c0,0.1-0.1,0.2-0.1,0.3v0.1c0,0,0,0-0.1,0.1v0.1l-0.1,0.1
		c0,0,0,0,0-0.1s0.1-0.1,0.1-0.2l0,0c-0.1,0-0.1,0.1-0.1,0.2c0,0,0,0.1-0.1,0.1c0,0.1-0.1,0.2-0.2,0.3c-0.1,0.1-0.2,0.2-0.3,0.3
		c0,0,0,0-0.1,0v-0.1l0,0c0,0,0,0,0-0.1c0.1-0.1,0.1-0.2,0.1-0.3c0-0.1,0.1-0.1,0.1-0.2c0.1-0.1,0.1-0.3,0.1-0.5c0,0-0.1,0-0.1,0.1
		s0,0.2-0.1,0.3c-0.1,0.2-0.3,0.4-0.4,0.6s-0.2,0.4-0.3,0.6v0.1l-0.1,0.1c0-0.1,0-0.2,0-0.3h-0.1c0,0.1,0,0.1,0,0.2
		c0,0-0.1,0-0.1,0.1s0,0.1-0.1,0.2c0,0,0,0-0.1,0c-0.1,0.2-0.2,0.4-0.4,0.4v-0.1c0.1-0.1,0.3-0.2,0.3-0.4c0.1-0.2,0.2-0.4,0.3-0.6
		v-0.1h-0.1c0,0.1,0,0.1-0.1,0.2l-0.1,0.1c-0.1,0.1-0.1,0.2-0.2,0.3c0,0.1-0.2,0.1-0.2,0.2c0,0,0,0.1-0.1,0.2s-0.1,0.2-0.2,0.4
		l-0.1,0.1c0-0.1,0.1-0.1,0.1-0.2v-0.1c0-0.1,0.1-0.1,0.1-0.2c0.1-0.1,0.1-0.2,0.1-0.4c0.1-0.2,0.2-0.4,0.3-0.5l0,0
		c0.1-0.2,0.2-0.4,0.4-0.6c0.1-0.1,0.2-0.2,0.2-0.3c0-0.1,0-0.1,0.1-0.2c0-0.1,0.2-0.2,0.2-0.3c0-0.1,0-0.1,0-0.2s0.1-0.2,0.1-0.2
		c0.1-0.1,0-0.3,0.1-0.4l0,0c0.1-0.1,0.2-0.3,0.2-0.4c-0.2,0-0.2,0.1-0.3,0.2c-0.2,0.4-0.3,0.8-0.5,1.2c-0.2,0.3-0.4,0.7-0.6,1
		c-0.1,0.1-0.3,0.3-0.4,0.4c-0.1,0.1-0.2,0.3-0.3,0.4c-0.2,0.2-0.3,0.4-0.5,0.5c0,0.1-0.1,0.2-0.1,0.2c-0.2,0.2-0.4,0.4-0.6,0.6
		h-0.1c0-0.1,0-0.2,0-0.3c0,0,0,0,0.1-0.1c0.1,0,0.1,0.1,0.1,0c0.2-0.2,0.4-0.3,0.5-0.5c0-0.1,0-0.2,0.1-0.3c0-0.1,0.1-0.1,0.2-0.1
		l0,0c0-0.1,0-0.2,0-0.4c0-0.1,0-0.2,0-0.3c0-0.1,0.1-0.1,0.2-0.1l0.1-0.1c0-0.1,0-0.2,0.1-0.3c0.2-0.3,0.3-0.5,0.5-0.8
		c0.2-0.4,0.2-0.7,0.4-1.1c0-0.1,0.1-0.2,0.1-0.2v-0.1h-0.1c-0.1,0.2-0.2,0.4-0.3,0.5c0,0.1,0,0.1-0.1,0.2c-0.2,0.3-0.3,0.6-0.5,0.9
		c0,0,0-0.1,0-0.2c0.2-0.5,0.6-0.9,0.7-1.4c0.1-0.3,0.2-0.6,0.3-0.9c0-0.1,0.1-0.2,0.1-0.3c0-0.1,0-0.1,0-0.2c0,0,0,0-0.1,0v0.1
		c-0.1,0.2-0.2,0.4-0.4,0.6c-0.1,0.2-0.2,0.3-0.2,0.5c-0.1,0.2-0.2,0.3-0.3,0.5c0,0.1-0.1,0.1-0.1,0.2v0.1c-0.1,0.2-0.3,0.4-0.4,0.6
		c-0.1,0.2-0.3,0.4-0.4,0.6c-0.1,0.1-0.1,0.2-0.1,0.4c0,0.1-0.1,0.2-0.2,0.3c-0.1,0.1-0.1,0.2-0.2,0.2l0,0c0,0,0,0,0-0.1
		c0.1-0.1,0.1-0.1,0.1-0.2c0.1-0.1,0.1-0.3,0.2-0.4c0.1-0.1,0.1-0.2,0.1-0.2c0.1-0.1,0.1-0.2,0.2-0.2l0,0c0.1-0.1,0.1-0.1,0.2-0.2
		c0,0,0,0,0-0.1s0.1-0.2,0.2-0.3c0,0,0,0,0-0.1c0,0,0,0,0-0.1l0,0v-0.1c0,0,0,0,0.1,0c0-0.1,0.1-0.2,0.2-0.3v-0.1c0,0,0-0.1,0.1-0.1
		v-0.1c0.1-0.2,0.2-0.3,0.3-0.5c0.2-0.4,0.4-0.8,0.6-1.2c0,0,0,0,0-0.1c0,0,0,0,0.1,0c0-0.1,0.1-0.2,0.1-0.4v-0.1l0,0
		c0,0,0.1,0,0.1-0.1s0-0.2,0-0.2s0-0.1,0-0.2s0-0.1,0.1-0.2l0,0c0,0,0,0,0-0.1c0-0.2,0.1-0.5,0.1-0.7l0,0c0.1-0.4,0.1-0.8,0-1.2
		c0-0.1,0-0.1,0-0.2v-0.1c-0.1-0.7-0.5-1.4-1-2l0,0l-0.1-0.1c-0.1-0.1-0.2-0.2-0.3-0.2c-0.1-0.1-0.3-0.2-0.4-0.3
		c-0.2-0.1-0.4-0.2-0.5-0.3c-0.3-0.2-0.6-0.3-1-0.4h-0.1c-0.2,0-0.3-0.1-0.4-0.1c-0.2-0.1-0.5-0.1-0.7-0.1c-0.1,0-0.3,0-0.5,0l0,0
		c-0.2,0-0.3,0-0.5,0s-0.3,0-0.5,0s-0.3,0-0.5,0c-0.1,0-0.3,0-0.4,0c-0.2,0-0.4,0-0.5,0c-0.3,0.1-0.6,0.1-0.9,0.1
		c-0.3,0.1-0.5,0.1-0.8,0.2c-0.2,0-0.4,0.1-0.6,0.2c-0.1,0-0.2,0-0.3,0.1c-0.3,0.1-0.6,0.2-0.9,0.3c0,0,0,0-0.1,0s-0.1,0.1-0.1,0.1
		h-0.1c-0.1,0-0.1,0.1-0.2,0.1c-0.1,0-0.2,0.1-0.4,0.2c0,0,0,0-0.1,0h-0.1c-0.2,0.1-0.4,0.2-0.7,0.3c-0.1,0-0.1,0.1-0.2,0.1h-0.1
		c-0.3,0.1-0.5,0.3-0.8,0.4c-0.1,0.1-0.1,0.1-0.2,0.1c-0.2,0.1-0.4,0.3-0.6,0.4c0,0-0.1,0.1-0.2,0.1c-0.1,0.1-0.2,0.1-0.3,0.2h-0.1
		h-0.1c0,0.1-0.1,0.1-0.1,0.1s0,0.1-0.1,0.1s0-0.1-0.1-0.1c0,0-0.1,0.1-0.1,0s0-0.1,0.1-0.2c0,0,0,0,0-0.1c0,0,0.1,0,0.1-0.1
		c0,0,0.1,0,0.1,0.1c0-0.1,0-0.1,0-0.2v-0.1c0,0,0.1,0,0.1-0.1l0,0c0,0,0,0-0.1,0l-0.1,0.1c-0.1,0-0.2,0.1-0.3,0.2l-0.1,0.1h-0.1
		c-0.2,0.1-0.2,0.2-0.4,0.3c0,0,0,0-0.1,0c0,0,0,0.1-0.1,0.1c0,0.1,0,0.1-0.1,0.1s-0.2,0-0.2,0.1v0.1c0,0.1-0.1,0.1-0.1,0.1
		s0,0-0.1,0l0,0l0,0c-0.1,0.1-0.1,0.1-0.1,0.2c0,0,0,0-0.1,0c0,0-0.1,0.1-0.1,0.2h-0.1c-0.1,0-0.2,0-0.2,0c-0.1,0.1-0.1,0.2-0.2,0.3
		l-0.1,0.1l0,0l0,0c0,0,0,0,0,0.1c-0.1,0-0.2,0.2-0.2,0.3l0,0c-0.2,0.3-0.5,0.7-0.7,0.9c0,0,0,0.1-0.1,0.2c-0.1,0.2-0.2,0.3-0.4,0.5
		v0.1c-0.4,0.2-0.2,0.7-0.4,0.9c-0.1,0.1-0.1,0.2-0.3,0.2v-0.1c-0.1,0.1-0.2,0.3-0.2,0.4v-0.4c-0.1,0-0.1,0.1-0.2,0.2
		c-0.3,0.4-0.2,1-0.6,1.3v-0.2c-0.2,0.2-0.4,0.4-0.5,0.6c-0.6,0.9-0.7,1.9-1,2.8h-0.1c-0.1-0.1,0-0.3,0-0.4c0,0.1-0.1,0.3-0.2,0.3
		c0-0.1-0.1-0.2,0-0.3c0,0.1-0.1,0.3-0.2,0.3v-0.5c0,0.1,0,0.3-0.1,0.4c0-0.2,0-0.4,0-0.6h-0.1c-0.1,0.2-0.1,0.4-0.2,0.5h-0.1
		c-0.1-0.3,0-0.5,0-0.7c-0.3,0-0.1,0.4-0.4,0.5c-0.1,0-0.3,0-0.4-0.1c-0.1-0.2,0-0.4-0.1-0.4c-0.2-0.3,0,0.3-0.2,0.4
		c-0.1,0-0.3,0-0.4-0.2c-0.1-0.1,0-0.3-0.1-0.4l-0.1-0.1c-0.1,0.1,0,0.4-0.2,0.4c-0.1,0-0.2-0.1-0.2-0.2v-0.1c-0.1,0.1-0.2,0-0.2,0
		c-0.1,0,0-0.1,0-0.2c-0.1,0-0.2,0.2-0.3,0.1c-0.1-0.4,0-0.7,0-1.1h-0.1c-0.1,0.1,0,0.4-0.3,0.5c0-0.1,0-0.3,0-0.4
		c0-0.4,0.2-0.7,0.1-1.1h-0.1c-0.1,0.4-0.2,0.7-0.4,1c-0.1,0.2-0.1,0.4-0.3,0.6h-0.1c0.1-0.4,0.3-0.9,0.3-1.3h0.1v-0.1l0.1-0.1
		c0-0.2,0.1-0.3,0.1-0.4c0.2-0.7,0.8-1.8,0.9-2.5c0-0.2-0.2,0.2-0.2,0c-0.3,0.9-0.9,1.8-1.2,2.7c-0.2,0.6-0.5,1.2-0.5,1.8h-0.1
		c0-0.2-0.1-0.9-0.1-1.1c0.3-1.5,0.8-2.2,1.3-3.6c0.1-0.3,0.3-0.5,0.4-0.9c-0.2,0.4-0.5,0.6-0.7,1c-0.5,1-0.9,2-1.2,3v0.2l-0.2,0.1
		c0-0.3,0.1-0.6,0.2-0.9c0.2-0.8,0.4-1.6,0.7-2.4c0.3-0.7,0.7-1.2,1-1.9c0,0.1,0,0.2,0,0.2c0.1-0.1,0.2-0.3,0.3-0.4
		c0.2-0.1,0.2-0.4,0.2-0.7c0-0.1,0.2-0.2,0.3-0.4c0.2-0.5,0.8-0.8,1-1.3c0.2-0.3,2.3-2,2.6-2.3c0,0,0.1,0,0.1-0.1
		c0.1,0,0.1-0.1,0.2-0.1c0-0.1,0.2-0.1,0.3-0.2c0,0,0.3-0.2,0.3-0.3c0.3-0.2,0.3-0.2,0.6-0.3c0.1,0,0.3-0.3,0.4-0.3
		c0.3-0.3,0.5-0.3,0.7-0.6c0.4,0,0.3,0,0.6-0.3c0,0,0.3,0,0.4,0c0.4-0.3,0.7-0.5,1-0.8c0.1,0,0.2,0,0.4,0c0.1,0,0.2-0.1,0.4-0.1
		c0.1,0,0.1,0,0.2-0.1c0.2-0.1,0.4-0.2,0.6-0.3c0.3-0.1,0.7-0.2,1.1-0.2c0.2,0,0.5-0.3,0.7-0.3c0.3-0.1,0.5,0.1,0.8,0.1
		c0.4,0,0.8,0,1.2-0.1c0.5-0.1,0.9-0.1,1.2-0.1c0.5,0,0.9,0,1.7,0.1c0.2,0,1,0.1,1.2,0.1c0.4,0.1,1.1,0.3,1.5,0.3
		c0.2,0,0.4,0,0.5,0.1"/>
		<path id="path16" d="M240.6,258.8c0.4-0.5,0.9-0.8,1.3-1.2c0.1-0.1,0.1-0.2,0-0.2c-0.1-0.1-0.2-0.1-0.2,0
		c-0.4,0.4-1,0.8-1.3,1.3c0,0.1,0,0.1,0,0.2C240.4,258.9,240.5,258.9,240.6,258.8"/>
		<path id="path17" d="M239.9,259.1c-0.1,0.1-0.1,0.1-0.2,0.2c-0.1,0-0.1,0.1,0,0.2c0,0.1,0.1,0.1,0.2,0
		c0.1-0.1,0.1-0.1,0.2-0.2c0.1-0.1,0-0.1,0-0.2C240,259.1,239.9,259.1,239.9,259.1"/>
		<path id="path18" d="M239.4,259.7c-0.4,0.4-0.7,0.9-1,1.4c0,0.1,0,0.1,0,0.2c0.1,0,0.1,0,0.2,0c0.2-0.5,0.5-1,0.9-1.4
		C239.5,259.8,239.5,259.8,239.4,259.7C239.5,259.6,239.4,259.6,239.4,259.7"/>
	</g>
	<g id="small-swoosh" data-color="secondary" class="secondary">
		<path d="M685.6,699.5c-16.2,8.8-31,17.7-47.2,25.1c-5.9,2.9-10.3,4.4-16.2,5.9
	c-7.4,2.9-13.3,4.4-20.6,5.9c-4.4,1.5-8.8,2.9-13.3,2.9c-19.2,2.9-35.4,7.4-53.1,7.4c-7.4,0-16.2,0-23.6,0c-5.9,0-11.8,0-16.2,0
	c-4.4,0-8.8,0-11.8-1.5l0,0l0,0l0,0c-5.9,0-10.3-1.5-14.7-1.5c-2.9,0-4.4,0-7.4-1.5H460l0,0c-1.5,0-4.4,0-5.9-1.5
	c-2.9,0-4.4,0-7.4-1.5c-1.5,0-2.9,0-2.9-1.5c0,0,0,0-1.5,0c-2.9-1.5-5.9-1.5-8.8-2.9h-1.5c-2.9-1.5-7.4-1.5-10.3-2.9
	c-1.5,0-1.5,0-2.9-1.5c-1.5,0-1.5,0-2.9-1.5h-1.5c-7.4-2.9-14.7-5.9-22.1-8.8h-1.5c-7.4-4.4-16.2-5.9-23.6-10.3
	c-4.4-2.9-10.3-4.4-14.7-7.4c-1.5-1.5-2.9-2.9-5.9-4.4h-1.5l0,0c-1.5,0-2.9-1.5-4.4-2.9c-2.9-2.9-7.4-4.4-10.3-7.4
	c-1.5-1.5-2.9-1.5-4.4-2.9c0,0,0-1.5,0-2.9c1.5,1.5,2.9,1.5,2.9,2.9c2.9,1.5,4.4,2.9,5.9,2.9s1.5,1.5,2.9,1.5s1.5,1.5,1.5,1.5
	c1.5,1.5,2.9,1.5,2.9,2.9h1.5c1.5,1.5,2.9,2.9,4.4,2.9c0,0,1.5,1.5,1.5,0c1.5,0,1.5-1.5,1.5-1.5c2.9,1.5,5.9,2.9,7.4,4.4h1.5
	c1.5,1.5,2.9,2.9,5.9,2.9c1.5,0,2.9,1.5,2.9,1.5h1.5c1.5,1.5,2.9,1.5,4.4,1.5l1.5,1.5c1.5,0,1.5,1.5,1.5,0c0,0,0,0,1.5,0
	c1.5,1.5,1.5,0,2.9,1.5c-5.9-4.4-8.8-4.4-14.7-8.8c-4.4-2.9-8.8-4.4-11.8-7.4c-1.5-1.5-2.9-2.9-4.4-4.4c-2.9-1.5,0,0-2.9-1.5
	c-1.5-1.5-5.9-4.4-7.4-4.4c-2.9-1.5-8.8-5.9-10.3-8.8c0-1.5-5.9-5.9-5.9-5.9c-1.5-1.5-2.9-2.9-4.4-4.4c-1.5-1.5-2.9-2.9-4.4-4.4
	c0,0-2.9-2.9-2.9-4.4c-1.5-2.9-5.9-7.4-8.8-10.3s-4.4-8.8-7.4-11.8c-1.5-1.5-2.9-2.9-4.4-4.4c-13.3-22.1-17.7-41.3-17.7-41.3
	c-1.5-1.5-1.5-2.9-2.9-5.9c1.5,0,0,1.5,1.5,2.9c0-1.5-1.5-2.9-1.5-4.4l-1.5-4.4c-2.9-8.8-4.4-22.1-4.4-22.1c0-2.9-1.5-5.9-1.5-8.8
	s0-16.2,0-20.6c0,0,0-1.5,1.5,0l0,0c0-1.5,0-2.9,0-2.9s1.5-4.4,0-5.9c0-1.5,0-1.5,0-2.9c0-1.5,0-1.5,0-2.9l0,0c0,0,0,1.5-1.5,1.5
	c0,1.5,0,2.9,0,2.9v1.5c0,0,0,0-1.5,0v-1.5v-1.5c0,0,0-5.9,1.5-5.9V502c0,0,0-2.9,0-4.4c0-1.5,0-2.9,1.5-4.4l0,0
	c0,1.5-1.5,5.9-1.5,5.9c0,1.5,1.5,5.9,1.5,5.9c0-1.5,0-2.9,0-2.9c0-1.5,0-1.5,0-2.9c1.5-1.5,1.5-1.5,1.5-2.9v-1.5c0-1.5,0-1.5,0-2.9
	h1.5c0-2.9,1.5-7.4,1.5-10.3v-1.5c0,0,1.5,0,1.5-1.5s1.5-2.9,1.5-2.9l0,0c0-1.5,0-1.5,1.5-2.9c0,0,0-2.9,1.5-2.9c0,0,0-2.9,0-4.4
	c0,0,0-1.5,0-2.9c0,0,0,0,0,1.5s-1.5,2.9-1.5,2.9c0,2.9-1.5,4.4-2.9,5.9v1.5c-1.5,1.5-1.5,2.9-1.5,4.4c-1.5,4.4-1.5,7.4-2.9,10.3
	l0,0c0-1.5,0-1.5,0-1.5l1.5-4.4c0-1.5,0-2.9,1.5-4.4c0,0,0,0,0-1.5v-1.5c1.5-5.9,4.4-10.3,5.9-16.2c1.5-2.9,1.5-5.9,4.4-8.8
	c85.5-146,241.8-128.3,296.4-115c-2.9,1.5-11.8,5.9-13.3,5.9c0,0-56-8.8-95.8,5.9c-1.5,0-1.5,0-2.9,1.5c0,0,0,0-1.5,0
	s-1.5,0-2.9,1.5c-1.5,0-1.5,0-1.5,0c-1.5,0-2.9,1.5-4.4,1.5c-1.5,0-1.5,0-1.5,1.5s2.9,1.5,4.4,1.5l0,0c2.9-1.5,4.4-2.9,7.4-1.5
	c0,0,0,1.5-1.5,1.5S460,356,457,356c-1.5,0-1.5,0-1.5,1.5c-4.4,1.5-7.4,2.9-11.8,5.9h-1.5c-1.5,1.5-4.4,1.5-5.9,2.9
	c-1.5,0-1.5,1.5-2.9,2.9c0,1.5-1.5,1.5-2.9,1.5l0,0l0,0c0,0-1.5,0-1.5,1.5l0,0c2.9,0,4.4-1.5,5.9-1.5s1.5-1.5,2.9-1.5s2.9-1.5,4.4,0
	c0,0,1.5,0,0,0c0,0,0,1.5-1.5,1.5c-32.4,11.8-51.6,22.1-87,61.9v2.9h2.9c0,0-39.8,45.7-33.9,95.8l1.5,1.5V530c0,0,0-10.3,4.4-22.1
	c0-1.5,1.5-1.5,1.5-1.5c1.5-4.4,2.9-10.3,5.9-13.3c0,0-5.9,7.4-2.9,29.5c2.9,22.1,1.5,0,1.5,0l1.5-1.5c0,0,0-8.8,4.4-20.6
	c11.8-29.5,41.3-85.5,94.4-113.5l-7.4,7.4c-20.6,11.8-51.6,50.1-57.5,60.5h2.9l1.5-2.9h2.9l-2.9,2.9c-8.8,10.3-17.7,31-17.7,31
	s0,0-1.5,1.5c0,1.5,0,1.5,0,2.9c0,0-1.5,0-1.5,1.5s0,1.5,0,2.9v1.5c0,1.5-1.5,4.4-1.5,5.9v1.5c0,1.5,0,2.9,0,4.4c0,1.5,0,1.5,0,2.9
	c-2.9,8.8-4.4,19.2-5.9,29.5c0,0,0,0,0,1.5c0,2.9,0,5.9,0,10.3c0,14.7,2.9,70.8,29.5,97.3c1.5,1.5,1.5,2.9,2.9,4.4s1.5,1.5,1.5,2.9
	c0,1.5,1.5,0,1.5,0c1.5,1.5,1.5,2.9,2.9,4.4c4.4,4.4,7.4,8.8,11.8,11.8c17.7,16.2,59,44.2,118,44.2S647.2,677.4,682.6,614
	s32.4-150.4-2.9-193.2c0,0-1.5,0-1.5-1.5h-1.5c0,0,0,0,0-1.5s1.5-1.5,1.5-1.5c5.9-2.9,10.3-4.4,16.2-5.9c2.9-1.5,7.4-1.5,10.3-1.5
	h1.5l1.5,1.5l0,0c1.5,1.5,1.5,2.9,2.9,4.4c0,0,1.5,0,1.5,1.5c1.5,2.9,4.4,4.4,5.9,7.4c0,0,0,1.5,1.5,1.5c1.5,1.5,2.9,2.9,4.4,2.9
	c-1.5-2.9-2.9-5.9-4.4-8.8v-1.5c-1.5-2.9-4.4-5.9-5.9-8.8c0,0,0-1.5-1.5-1.5c0,0,0,0,0-1.5c1.5,0,2.9-1.5,2.9-1.5
	c1.5,0,1.5,2.9,2.9,2.9v-1.5h1.5c1.5,1.5,1.5,4.4,2.9,4.4c5.9,7.4,8.8,14.7,13.3,23.6l0,0c0-2.9-2.9-5.9-2.9-8.8
	c-1.5-5.9-5.9-10.3-8.8-16.2c0-1.5-1.5-1.5-2.9-2.9c0,0-1.5,0-1.5-1.5h1.5l0,0l0,0h1.5c0,0,0,0,0,1.5h1.5
	c10.3,16.2,73.7,106.2,4.4,230l1.5,1.5c0,0-17.7,23.6-38.3,44.2s1.5,1.5,1.5,1.5s69.3-48.7,79.6-143c1.5-14.7-2.9-48.7-7.4-66.4
	l1.5-4.4c0,0,26.5,57.5-5.9,137.1C751.9,640.6,718,681.8,685.6,699.5"/>
	</g>
</svg>
